Decovar-Regular24SkelB2.ufo
<glyph name="A" format="1">
  <advance width="1274"/>
  <unicode hex="0041"/>
  <outline>
    <contour>
      <point x="303" y="195" type="qcurve"/>
      <point x="283" y="149"/>
      <point x="283" y="148"/>
      <point x="253" y="163" type="qcurve" smooth="yes"/>
      <point x="222" y="178"/>
      <point x="222" y="178"/>
      <point x="242" y="223" type="qcurve"/>
      <point x="272" y="297"/>
      <point x="365" y="312"/>
      <point x="629" y="312" type="qcurve"/>
      <point x="707" y="312"/>
      <point x="868" y="312"/>
      <point x="938" y="312" type="qcurve"/>
      <point x="988" y="312"/>
      <point x="988" y="312"/>
      <point x="1003" y="278" type="qcurve" smooth="yes"/>
      <point x="1018" y="244"/>
      <point x="1018" y="244"/>
      <point x="963" y="244" type="qcurve" smooth="yes"/>
      <point x="889" y="244"/>
      <point x="715" y="244"/>
      <point x="629" y="244" type="qcurve"/>
      <point x="404" y="244"/>
      <point x="321" y="235"/>
    </contour>
    <contour>
      <point x="350" y="312" type="qcurve"/>
      <point x="279" y="312"/>
      <point x="279" y="312"/>
      <point x="294" y="346" type="qcurve" smooth="yes"/>
      <point x="309" y="380"/>
      <point x="309" y="380"/>
      <point x="350" y="380" type="qcurve"/>
      <point x="406" y="380"/>
      <point x="554" y="380"/>
      <point x="738" y="380" type="qcurve"/>
      <point x="838" y="380"/>
      <point x="877" y="399"/>
      <point x="860" y="438" type="qcurve"/>
      <point x="851" y="457"/>
      <point x="850" y="456"/>
      <point x="883" y="472" type="qcurve" smooth="yes"/>
      <point x="912" y="486"/>
      <point x="912" y="486"/>
      <point x="927" y="452" type="qcurve" smooth="yes"/>
      <point x="955" y="388"/>
      <point x="900" y="312"/>
      <point x="824" y="312" type="qcurve"/>
      <point x="540" y="312"/>
      <point x="387" y="312"/>
    </contour>
    <contour>
      <point x="244" y="809" type="qcurve"/>
      <point x="261" y="847"/>
      <point x="261" y="847"/>
      <point x="295" y="831" type="qcurve"/>
      <point x="330" y="816"/>
      <point x="370" y="881"/>
      <point x="505" y="1190" type="qcurve" smooth="yes"/>
      <point x="516" y="1215"/>
      <point x="517" y="1216"/>
      <point x="558" y="1216" type="qcurve"/>
      <point x="598" y="1216"/>
      <point x="598" y="1216"/>
      <point x="442" y="864" type="qcurve"/>
      <point x="406" y="782"/>
      <point x="318" y="732"/>
      <point x="262" y="756" type="qcurve"/>
      <point x="228" y="772"/>
      <point x="228" y="772"/>
    </contour>
    <contour>
      <point x="408" y="692" type="qcurve"/>
      <point x="374" y="707"/>
      <point x="374" y="707"/>
      <point x="386" y="736" type="qcurve"/>
      <point x="465" y="916"/>
      <point x="542" y="1092"/>
      <point x="574" y="1162" type="qcurve"/>
      <point x="598" y="1216"/>
      <point x="598" y="1216"/>
      <point x="618" y="1168" type="qcurve"/>
      <point x="638" y="1123"/>
      <point x="638" y="1123"/>
      <point x="627" y="1097" type="qcurve" smooth="yes"/>
      <point x="609" y="1055"/>
      <point x="537" y="896"/>
      <point x="457" y="713" type="qcurve"/>
      <point x="441" y="676"/>
      <point x="441" y="676"/>
    </contour>
    <contour>
      <point x="938" y="721" type="qcurve"/>
      <point x="901" y="705"/>
      <point x="901" y="705"/>
      <point x="737" y="1080" type="qcurve"/>
      <point x="719" y="1125"/>
      <point x="729" y="1208"/>
      <point x="802" y="1241" type="qcurve"/>
      <point x="837" y="1256"/>
      <point x="837" y="1256"/>
      <point x="853" y="1219" type="qcurve"/>
      <point x="871" y="1182"/>
      <point x="871" y="1182"/>
      <point x="836" y="1166" type="qcurve"/>
      <point x="801" y="1150"/>
      <point x="811" y="1102"/>
      <point x="960" y="763" type="qcurve"/>
      <point x="972" y="736"/>
      <point x="972" y="736"/>
    </contour>
    <contour>
      <point x="736" y="678" type="qcurve"/>
      <point x="720" y="716"/>
      <point x="720" y="716"/>
      <point x="754" y="730" type="qcurve"/>
      <point x="789" y="746"/>
      <point x="767" y="819"/>
      <point x="649" y="1097" type="qcurve" smooth="yes"/>
      <point x="638" y="1124"/>
      <point x="638" y="1123"/>
      <point x="657" y="1169" type="qcurve"/>
      <point x="679" y="1216"/>
      <point x="679" y="1216"/>
      <point x="830" y="867" type="qcurve"/>
      <point x="867" y="782"/>
      <point x="843" y="681"/>
      <point x="788" y="655" type="qcurve"/>
      <point x="753" y="641"/>
      <point x="753" y="641"/>
    </contour>
    <component base="TopCrown" xOffset="465"/>
    <component base="CWTermMidWaist" xScale="-0.9144513511998228" xyScale="0.4046958441704308" yxScale="-0.4046958441704308" yScale="-0.9144513511998228" xOffset="850" yOffset="1164"/>
    <component base="CCWTermMidWaist" xScale="-0.916508931755964" xyScale="-0.400014222261586" yxScale="0.400014222261586" yScale="-0.916508931755964" xOffset="890" yOffset="1366"/>
  </outline>
</glyph>
<glyph name="C" format="1">
  <advance width="1148"/>
  <unicode hex="0043"/>
  <outline>
    <contour>
      <point x="941" y="-67" type="qcurve"/>
      <point x="942" y="-83"/>
      <point x="942" y="-83"/>
      <point x="905" y="-83" type="qcurve"/>
      <point x="868" y="-83"/>
      <point x="868" y="-83"/>
      <point x="868" y="-64" type="qcurve"/>
      <point x="865" y="-9"/>
      <point x="914" y="42"/>
      <point x="963" y="58" type="qcurve"/>
      <point x="984" y="63"/>
      <point x="984" y="63"/>
      <point x="984" y="27" type="qcurve"/>
      <point x="984" y="-11"/>
      <point x="984" y="-11"/>
      <point x="963" y="-16" type="qcurve"/>
      <point x="943" y="-20"/>
      <point x="940" y="-50"/>
    </contour>
    <contour>
      <point x="859" y="136" type="qcurve"/>
      <point x="850" y="153"/>
      <point x="850" y="153"/>
      <point x="881" y="169" type="qcurve"/>
      <point x="914" y="185"/>
      <point x="914" y="185"/>
      <point x="922" y="172" type="qcurve"/>
      <point x="932" y="154"/>
      <point x="953" y="129"/>
      <point x="967" y="131" type="qcurve"/>
      <point x="984" y="136"/>
      <point x="984" y="136"/>
      <point x="984" y="100" type="qcurve"/>
      <point x="984" y="63"/>
      <point x="984" y="63"/>
      <point x="963" y="58" type="qcurve"/>
      <point x="924" y="49"/>
      <point x="878" y="82"/>
    </contour>
    <contour>
      <point x="966" y="1232" type="qcurve"/>
      <point x="951" y="1235"/>
      <point x="937" y="1224"/>
      <point x="932" y="1201" type="qcurve"/>
      <point x="929" y="1186"/>
      <point x="929" y="1186"/>
      <point x="895" y="1199" type="qcurve"/>
      <point x="860" y="1212"/>
      <point x="860" y="1212"/>
      <point x="863" y="1231" type="qcurve"/>
      <point x="873" y="1283"/>
      <point x="921" y="1321"/>
      <point x="948" y="1315" type="qcurve"/>
      <point x="984" y="1305"/>
      <point x="984" y="1305"/>
      <point x="984" y="1266" type="qcurve"/>
      <point x="984" y="1227"/>
      <point x="984" y="1227"/>
    </contour>
    <contour>
      <point x="948" y="1315" type="qcurve"/>
      <point x="909" y="1324"/>
      <point x="865" y="1381"/>
      <point x="870" y="1439" type="qcurve"/>
      <point x="871" y="1454"/>
      <point x="871" y="1454"/>
      <point x="910" y="1454" type="qcurve"/>
      <point x="949" y="1454"/>
      <point x="949" y="1454"/>
      <point x="948" y="1436" type="qcurve"/>
      <point x="947" y="1419"/>
      <point x="952" y="1391"/>
      <point x="965" y="1388" type="qcurve"/>
      <point x="984" y="1384"/>
      <point x="984" y="1383"/>
      <point x="984" y="1344" type="qcurve"/>
      <point x="984" y="1305"/>
      <point x="984" y="1305"/>
    </contour>
    <contour>
      <point x="772" y="-28" type="qcurve"/>
      <point x="738" y="-26"/>
      <point x="738" y="-26"/>
      <point x="738" y="14" type="qcurve"/>
      <point x="738" y="49"/>
      <point x="738" y="49"/>
      <point x="772" y="45" type="qcurve"/>
      <point x="807" y="45"/>
      <point x="807" y="45"/>
      <point x="807" y="10" type="qcurve"/>
      <point x="807" y="-29"/>
      <point x="807" y="-29"/>
    </contour>
    <contour>
      <point x="772" y="45" type="qcurve"/>
      <point x="738" y="49"/>
      <point x="738" y="49"/>
      <point x="738" y="83" type="qcurve" smooth="yes"/>
      <point x="738" y="123"/>
      <point x="738" y="123"/>
      <point x="774" y="119" type="qcurve"/>
      <point x="807" y="117"/>
      <point x="807" y="117"/>
      <point x="807" y="79" type="qcurve"/>
      <point x="807" y="45"/>
      <point x="807" y="45"/>
    </contour>
    <contour>
      <point x="770" y="1248" type="qcurve"/>
      <point x="738" y="1244"/>
      <point x="738" y="1244"/>
      <point x="738" y="1287" type="qcurve" smooth="yes"/>
      <point x="738" y="1322"/>
      <point x="738" y="1322"/>
      <point x="771" y="1325" type="qcurve"/>
      <point x="803" y="1326"/>
      <point x="803" y="1326"/>
      <point x="803" y="1289" type="qcurve"/>
      <point x="803" y="1249"/>
      <point x="803" y="1249"/>
    </contour>
    <contour>
      <point x="771" y="1325" type="qcurve"/>
      <point x="738" y="1322"/>
      <point x="738" y="1322"/>
      <point x="738" y="1360" type="qcurve"/>
      <point x="738" y="1401"/>
      <point x="738" y="1401"/>
      <point x="770" y="1403" type="qcurve"/>
      <point x="803" y="1403"/>
      <point x="803" y="1403"/>
      <point x="803" y="1362" type="qcurve"/>
      <point x="803" y="1326"/>
      <point x="803" y="1326"/>
    </contour>
    <contour>
      <point x="838" y="-29" type="qcurve"/>
      <point x="807" y="-29"/>
      <point x="807" y="-29"/>
      <point x="807" y="10" type="qcurve"/>
      <point x="807" y="45"/>
      <point x="807" y="45"/>
      <point x="836" y="45" type="qcurve"/>
      <point x="867" y="46"/>
      <point x="867" y="46"/>
      <point x="867" y="10" type="qcurve"/>
      <point x="867" y="-28"/>
      <point x="867" y="-28"/>
    </contour>
    <contour>
      <point x="836" y="45" type="qcurve"/>
      <point x="807" y="45"/>
      <point x="807" y="45"/>
      <point x="807" y="79" type="qcurve"/>
      <point x="807" y="117"/>
      <point x="807" y="117"/>
      <point x="837" y="117" type="qcurve"/>
      <point x="867" y="118"/>
      <point x="867" y="118"/>
      <point x="867" y="82" type="qcurve" smooth="yes"/>
      <point x="867" y="46"/>
      <point x="867" y="46"/>
    </contour>
    <contour>
      <point x="835" y="1248" type="qcurve"/>
      <point x="803" y="1249"/>
      <point x="803" y="1249"/>
      <point x="803" y="1289" type="qcurve"/>
      <point x="803" y="1326"/>
      <point x="803" y="1326"/>
      <point x="834" y="1325" type="qcurve"/>
      <point x="867" y="1324"/>
      <point x="867" y="1324"/>
      <point x="867" y="1286" type="qcurve" smooth="yes"/>
      <point x="867" y="1247"/>
      <point x="867" y="1247"/>
    </contour>
    <contour>
      <point x="834" y="1325" type="qcurve"/>
      <point x="803" y="1326"/>
      <point x="803" y="1326"/>
      <point x="803" y="1362" type="qcurve"/>
      <point x="803" y="1403"/>
      <point x="803" y="1403"/>
      <point x="836" y="1403" type="qcurve"/>
      <point x="867" y="1402"/>
      <point x="867" y="1402"/>
      <point x="867" y="1362" type="qcurve"/>
      <point x="867" y="1324"/>
      <point x="867" y="1324"/>
    </contour>
    <contour>
      <point x="1025" y="0" type="qcurve"/>
      <point x="984" y="-11"/>
      <point x="984" y="-11"/>
      <point x="984" y="27" type="qcurve"/>
      <point x="984" y="63"/>
      <point x="984" y="63"/>
      <point x="1026" y="75" type="qcurve"/>
      <point x="1066" y="89"/>
      <point x="1066" y="89"/>
      <point x="1066" y="51" type="qcurve"/>
      <point x="1066" y="12"/>
      <point x="1066" y="12"/>
    </contour>
    <contour>
      <point x="1026" y="75" type="qcurve"/>
      <point x="984" y="63"/>
      <point x="984" y="63"/>
      <point x="984" y="100" type="qcurve"/>
      <point x="984" y="136"/>
      <point x="984" y="136"/>
      <point x="1027" y="150" type="qcurve"/>
      <point x="1066" y="165"/>
      <point x="1066" y="165"/>
      <point x="1066" y="128" type="qcurve"/>
      <point x="1066" y="89"/>
      <point x="1066" y="89"/>
    </contour>
    <contour>
      <point x="1108" y="27" type="qcurve"/>
      <point x="1066" y="12"/>
      <point x="1066" y="12"/>
      <point x="1066" y="51" type="qcurve"/>
      <point x="1066" y="89"/>
      <point x="1066" y="89"/>
      <point x="1107" y="108" type="qcurve"/>
      <point x="1148" y="132"/>
      <point x="1148" y="132"/>
      <point x="1148" y="77" type="qcurve"/>
      <point x="1148" y="46"/>
      <point x="1148" y="46"/>
    </contour>
    <contour>
      <point x="1107" y="108" type="qcurve"/>
      <point x="1066" y="89"/>
      <point x="1066" y="89"/>
      <point x="1066" y="128" type="qcurve"/>
      <point x="1066" y="165"/>
      <point x="1066" y="165"/>
      <point x="1105" y="186" type="qcurve"/>
      <point x="1148" y="216"/>
      <point x="1148" y="216"/>
      <point x="1148" y="164" type="qcurve" smooth="yes"/>
      <point x="1148" y="132"/>
      <point x="1148" y="132"/>
    </contour>
    <component base="TopCurvedElement" xOffset="738" yOffset="-3"/>
    <component base="RoundWaistElement270" xOffset="82"/>
    <component base="RoundDualySW" xOffset="85"/>
    <component base="RoundDualyNW" xOffset="85"/>
  </outline>
</glyph>
<glyph name="D" format="1">
  <advance width="1310.0"/>
  <unicode hex="0044"/>
  <outline>
    <contour>
      <point x="409" y="-48" type="qcurve" smooth="yes"/>
      <point x="409" y="-83"/>
      <point x="409" y="-83"/>
      <point x="368" y="-83" type="qcurve" smooth="yes"/>
      <point x="327" y="-83"/>
      <point x="327" y="-83"/>
      <point x="327" y="-48" type="qcurve"/>
      <point x="327" y="17"/>
      <point x="394" y="75"/>
      <point x="481" y="75" type="qcurve"/>
      <point x="772" y="75"/>
      <point x="1115" y="373"/>
      <point x="1134" y="547" type="qcurve"/>
      <point x="1139" y="578"/>
      <point x="1225" y="610"/>
      <point x="1234" y="579" type="qcurve" smooth="yes"/>
      <point x="1244" y="546"/>
      <point x="1243" y="546"/>
      <point x="1206" y="491" type="qcurve"/>
      <point x="1164" y="281"/>
      <point x="802" y="0"/>
      <point x="479" y="0" type="qcurve"/>
      <point x="442" y="0"/>
      <point x="409" y="-19"/>
    </contour>
    <contour>
      <point x="328" y="186" type="qcurve"/>
      <point x="328" y="234"/>
      <point x="328" y="234"/>
      <point x="374" y="234" type="qcurve"/>
      <point x="415" y="234"/>
      <point x="415" y="234"/>
      <point x="415" y="197" type="qcurve"/>
      <point x="415" y="164"/>
      <point x="457" y="152"/>
      <point x="490" y="152" type="qcurve"/>
      <point x="717" y="152"/>
      <point x="1001" y="368"/>
      <point x="1034" y="504" type="qcurve"/>
      <point x="1023" y="538"/>
      <point x="995" y="572"/>
      <point x="1028" y="594" type="qcurve"/>
      <point x="1054" y="609"/>
      <point x="1118" y="597"/>
      <point x="1132" y="547" type="qcurve"/>
      <point x="1113" y="373"/>
      <point x="772" y="75"/>
      <point x="481" y="75" type="qcurve" smooth="yes"/>
      <point x="409" y="75"/>
      <point x="328" y="131"/>
    </contour>
    <contour>
      <point x="1235" y="789" type="qcurve" smooth="yes"/>
      <point x="1226" y="758"/>
      <point x="1140" y="790"/>
      <point x="1135" y="821" type="qcurve"/>
      <point x="1116" y="995"/>
      <point x="773" y="1293"/>
      <point x="482" y="1293" type="qcurve"/>
      <point x="395" y="1293"/>
      <point x="328" y="1351"/>
      <point x="328" y="1416" type="qcurve"/>
      <point x="328" y="1451"/>
      <point x="328" y="1451"/>
      <point x="369" y="1451" type="qcurve" smooth="yes"/>
      <point x="410" y="1451"/>
      <point x="410" y="1451"/>
      <point x="410" y="1416" type="qcurve" smooth="yes"/>
      <point x="410" y="1387"/>
      <point x="443" y="1368"/>
      <point x="480" y="1368" type="qcurve"/>
      <point x="803" y="1368"/>
      <point x="1165" y="1087"/>
      <point x="1207" y="877" type="qcurve"/>
      <point x="1244" y="822"/>
      <point x="1245" y="822"/>
    </contour>
    <contour>
      <point x="1029" y="774" type="qcurve"/>
      <point x="996" y="796"/>
      <point x="1024" y="830"/>
      <point x="1035" y="864" type="qcurve"/>
      <point x="1002" y="1000"/>
      <point x="718" y="1216"/>
      <point x="491" y="1216" type="qcurve"/>
      <point x="458" y="1216"/>
      <point x="416" y="1215"/>
      <point x="416" y="1171" type="qcurve"/>
      <point x="416" y="1134"/>
      <point x="416" y="1134"/>
      <point x="377" y="1134" type="qcurve"/>
      <point x="329" y="1134"/>
      <point x="329" y="1134"/>
      <point x="329" y="1182" type="qcurve"/>
      <point x="329" y="1237"/>
      <point x="410" y="1293"/>
      <point x="482" y="1293" type="qcurve" smooth="yes"/>
      <point x="773" y="1293"/>
      <point x="1114" y="995"/>
      <point x="1133" y="821" type="qcurve"/>
      <point x="1119" y="771"/>
      <point x="1055" y="759"/>
    </contour>
    <component base="CapStemPatternV2" xOffset="-82"/>
    <component base="RoundWaistElement90" xOffset="1057"/>
  </outline>
</glyph>
<glyph name="F" format="1">
  <advance width="738.0"/>
  <unicode hex="0046"/>
  <outline>
    <contour>
      <point x="368" y="608" type="qcurve" smooth="yes"/>
      <point x="328" y="608"/>
      <point x="328" y="608"/>
      <point x="328" y="646" type="qcurve" smooth="yes"/>
      <point x="328" y="684"/>
      <point x="328" y="684"/>
      <point x="368" y="684" type="qcurve"/>
      <point x="379" y="684"/>
      <point x="401" y="684"/>
      <point x="412" y="684" type="qcurve" smooth="yes"/>
      <point x="422" y="684"/>
      <point x="442" y="684"/>
      <point x="453" y="684" type="qcurve" smooth="yes"/>
      <point x="493" y="684"/>
      <point x="493" y="684"/>
      <point x="493" y="645" type="qcurve" smooth="yes"/>
      <point x="493" y="608"/>
      <point x="493" y="608"/>
      <point x="453" y="608" type="qcurve" smooth="yes"/>
      <point x="442" y="608"/>
      <point x="422" y="608"/>
      <point x="412" y="608" type="qcurve" smooth="yes"/>
      <point x="401" y="608"/>
      <point x="379" y="608"/>
    </contour>
    <contour>
      <point x="328" y="808" type="qcurve"/>
      <point x="328" y="843"/>
      <point x="328" y="843"/>
      <point x="369" y="843" type="qcurve"/>
      <point x="410" y="843"/>
      <point x="410" y="843"/>
      <point x="410" y="808" type="qcurve"/>
      <point x="410" y="779"/>
      <point x="443" y="760"/>
      <point x="480" y="760" type="qcurve"/>
      <point x="484" y="760"/>
      <point x="487" y="760"/>
      <point x="490" y="760" type="qcurve"/>
      <point x="493" y="760"/>
      <point x="493" y="760"/>
      <point x="493" y="721" type="qcurve" smooth="yes"/>
      <point x="493" y="684"/>
      <point x="493" y="684"/>
      <point x="490" y="684" type="qcurve"/>
      <point x="487" y="684"/>
      <point x="462" y="684"/>
      <point x="456" y="684" type="qcurve"/>
      <point x="385" y="684"/>
      <point x="328" y="743"/>
    </contour>
    <contour>
      <point x="368" y="1216" type="qcurve" smooth="yes"/>
      <point x="328" y="1216"/>
      <point x="328" y="1216"/>
      <point x="328" y="1254" type="qcurve" smooth="yes"/>
      <point x="328" y="1292"/>
      <point x="328" y="1292"/>
      <point x="368" y="1292" type="qcurve"/>
      <point x="389" y="1292"/>
      <point x="401" y="1292"/>
      <point x="420" y="1292" type="qcurve" smooth="yes"/>
      <point x="510" y="1292"/>
      <point x="576" y="1227"/>
      <point x="576" y="1169" type="qcurve"/>
      <point x="576" y="1133"/>
      <point x="576" y="1133"/>
      <point x="535" y="1133" type="qcurve"/>
      <point x="494" y="1133"/>
      <point x="494" y="1133"/>
      <point x="494" y="1169" type="qcurve"/>
      <point x="494" y="1198"/>
      <point x="464" y="1216"/>
      <point x="416" y="1216" type="qcurve" smooth="yes"/>
      <point x="397" y="1216"/>
      <point x="389" y="1216"/>
    </contour>
    <contour>
      <point x="328" y="1416" type="qcurve"/>
      <point x="328" y="1451"/>
      <point x="328" y="1451"/>
      <point x="369" y="1451" type="qcurve"/>
      <point x="410" y="1451"/>
      <point x="410" y="1451"/>
      <point x="410" y="1416" type="qcurve"/>
      <point x="410" y="1387"/>
      <point x="443" y="1368"/>
      <point x="480" y="1368" type="qcurve" smooth="yes"/>
      <point x="501" y="1368"/>
      <point x="511" y="1368"/>
      <point x="534" y="1368" type="qcurve" smooth="yes"/>
      <point x="574" y="1368"/>
      <point x="574" y="1368"/>
      <point x="574" y="1329" type="qcurve" smooth="yes"/>
      <point x="574" y="1292"/>
      <point x="574" y="1292"/>
      <point x="534" y="1292" type="qcurve" smooth="yes"/>
      <point x="511" y="1292"/>
      <point x="477" y="1292"/>
      <point x="456" y="1292" type="qcurve" smooth="yes"/>
      <point x="385" y="1292"/>
      <point x="328" y="1351"/>
    </contour>
    <component base="TopElementV2" xOffset="-82"/>
    <component base="BaseTerminal" xOffset="-82"/>
    <component base="MidElement" xOffset="-82"/>
    <component base="WaistElement" xOffset="-82"/>
    <component base="RightBotTerm" xOffset="247" yOffset="608"/>
    <component base="RightTopTerminal" xOffset="328" yOffset="1216"/>
    <component base="RightTopTerminal" xOffset="247" yOffset="608"/>
  </outline>
</glyph>
<glyph name="G" format="1">
  <advance width="1230"/>
  <unicode hex="0047"/>
  <outline>
    <contour>
      <point x="943" y="-59" type="qcurve"/>
      <point x="944" y="-75"/>
      <point x="944" y="-75"/>
      <point x="907" y="-75" type="qcurve"/>
      <point x="871" y="-75"/>
      <point x="871" y="-75"/>
      <point x="870" y="-56" type="qcurve"/>
      <point x="867" y="-11"/>
      <point x="921" y="48"/>
      <point x="963" y="57" type="qcurve"/>
      <point x="984" y="62"/>
      <point x="984" y="62"/>
      <point x="984" y="26" type="qcurve"/>
      <point x="984" y="-12"/>
      <point x="984" y="-12"/>
      <point x="963" y="-17" type="qcurve"/>
      <point x="943" y="-21"/>
      <point x="942" y="-42"/>
    </contour>
    <contour>
      <point x="886" y="45" type="qcurve"/>
      <point x="867" y="44"/>
      <point x="867" y="44"/>
      <point x="867" y="80" type="qcurve"/>
      <point x="867" y="119"/>
      <point x="867" y="119"/>
      <point x="884" y="120" type="qcurve"/>
      <point x="904" y="121"/>
      <point x="936" y="126"/>
      <point x="958" y="130" type="qcurve"/>
      <point x="984" y="136"/>
      <point x="984" y="136"/>
      <point x="984" y="99" type="qcurve"/>
      <point x="984" y="62"/>
      <point x="984" y="62"/>
      <point x="963" y="57" type="qcurve"/>
      <point x="940" y="52"/>
      <point x="908" y="47"/>
    </contour>
    <contour>
      <point x="930" y="1211" type="qcurve"/>
      <point x="927" y="1198"/>
      <point x="926" y="1198"/>
      <point x="889" y="1212" type="qcurve"/>
      <point x="863" y="1221"/>
      <point x="861" y="1224"/>
      <point x="869" y="1245" type="qcurve"/>
      <point x="875" y="1286"/>
      <point x="917" y="1319"/>
      <point x="949" y="1315" type="qcurve"/>
      <point x="965" y="1311"/>
      <point x="965" y="1311"/>
      <point x="965" y="1270" type="qcurve"/>
      <point x="965" y="1233"/>
      <point x="965" y="1233"/>
      <point x="956" y="1236" type="qcurve"/>
      <point x="947" y="1238"/>
      <point x="933" y="1228"/>
    </contour>
    <contour>
      <point x="870" y="1452" type="qcurve"/>
      <point x="880" y="1469"/>
      <point x="880" y="1469"/>
      <point x="913" y="1453" type="qcurve"/>
      <point x="950" y="1435"/>
      <point x="950" y="1435"/>
      <point x="942" y="1421" type="qcurve"/>
      <point x="936" y="1410"/>
      <point x="941" y="1395"/>
      <point x="951" y="1393" type="qcurve"/>
      <point x="965" y="1390"/>
      <point x="965" y="1390"/>
      <point x="965" y="1348" type="qcurve"/>
      <point x="965" y="1311"/>
      <point x="965" y="1311"/>
      <point x="949" y="1315" type="qcurve"/>
      <point x="920" y="1318"/>
      <point x="856" y="1421"/>
    </contour>
    <contour>
      <point x="898" y="171" type="qcurve"/>
      <point x="898" y="212"/>
      <point x="898" y="212"/>
      <point x="936" y="212" type="qcurve"/>
      <point x="974" y="212"/>
      <point x="984" y="287"/>
      <point x="984" y="358" type="qcurve"/>
      <point x="984" y="500"/>
      <point x="984" y="500"/>
      <point x="1026" y="500" type="qcurve"/>
      <point x="1066" y="500"/>
      <point x="1066" y="500"/>
      <point x="1066" y="303" type="qcurve"/>
      <point x="1066" y="213"/>
      <point x="997" y="130"/>
      <point x="936" y="130" type="qcurve"/>
      <point x="898" y="130"/>
      <point x="898" y="130"/>
    </contour>
    <contour>
      <point x="1106" y="186" type="qcurve"/>
      <point x="1066" y="165"/>
      <point x="1066" y="165"/>
      <point x="1066" y="355" type="qcurve"/>
      <point x="1066" y="420"/>
      <point x="1116" y="500"/>
      <point x="1197" y="500" type="qcurve"/>
      <point x="1235" y="500"/>
      <point x="1235" y="500"/>
      <point x="1235" y="459" type="qcurve"/>
      <point x="1235" y="418"/>
      <point x="1235" y="418"/>
      <point x="1197" y="418" type="qcurve"/>
      <point x="1159" y="418"/>
      <point x="1148" y="370"/>
      <point x="1148" y="289" type="qcurve"/>
      <point x="1148" y="215"/>
      <point x="1148" y="215"/>
    </contour>
    <contour>
      <point x="772" y="-29" type="qcurve"/>
      <point x="738" y="-26"/>
      <point x="738" y="-26"/>
      <point x="738" y="13" type="qcurve"/>
      <point x="738" y="49"/>
      <point x="738" y="49"/>
      <point x="772" y="45" type="qcurve"/>
      <point x="805" y="44"/>
      <point x="805" y="44"/>
      <point x="805" y="9" type="qcurve"/>
      <point x="805" y="-30"/>
      <point x="805" y="-30"/>
    </contour>
    <contour>
      <point x="772" y="45" type="qcurve"/>
      <point x="738" y="49"/>
      <point x="738" y="49"/>
      <point x="738" y="82" type="qcurve" smooth="yes"/>
      <point x="738" y="123"/>
      <point x="738" y="123"/>
      <point x="773" y="120" type="qcurve"/>
      <point x="805" y="119"/>
      <point x="805" y="119"/>
      <point x="805" y="78" type="qcurve"/>
      <point x="805" y="44"/>
      <point x="805" y="44"/>
    </contour>
    <contour>
      <point x="774" y="1248" type="qcurve"/>
      <point x="738" y="1244"/>
      <point x="738" y="1244"/>
      <point x="738" y="1287" type="qcurve" smooth="yes"/>
      <point x="738" y="1322"/>
      <point x="738" y="1322"/>
      <point x="775" y="1324" type="qcurve"/>
      <point x="804" y="1325"/>
      <point x="804" y="1325"/>
      <point x="804" y="1289" type="qcurve"/>
      <point x="804" y="1250"/>
      <point x="804" y="1250"/>
    </contour>
    <contour>
      <point x="775" y="1324" type="qcurve"/>
      <point x="738" y="1322"/>
      <point x="738" y="1322"/>
      <point x="738" y="1359" type="qcurve"/>
      <point x="738" y="1401"/>
      <point x="738" y="1401"/>
      <point x="774" y="1403" type="qcurve"/>
      <point x="804" y="1403"/>
      <point x="804" y="1403"/>
      <point x="804" y="1361" type="qcurve"/>
      <point x="804" y="1325"/>
      <point x="804" y="1325"/>
    </contour>
    <contour>
      <point x="838" y="-30" type="qcurve"/>
      <point x="805" y="-30"/>
      <point x="805" y="-30"/>
      <point x="805" y="9" type="qcurve"/>
      <point x="805" y="44"/>
      <point x="805" y="44"/>
      <point x="836" y="44" type="qcurve"/>
      <point x="867" y="44"/>
      <point x="867" y="44"/>
      <point x="867" y="9" type="qcurve"/>
      <point x="867" y="-29"/>
      <point x="867" y="-29"/>
    </contour>
    <contour>
      <point x="836" y="44" type="qcurve"/>
      <point x="805" y="44"/>
      <point x="805" y="44"/>
      <point x="805" y="78" type="qcurve"/>
      <point x="805" y="119"/>
      <point x="805" y="119"/>
      <point x="837" y="119" type="qcurve"/>
      <point x="867" y="119"/>
      <point x="867" y="119"/>
      <point x="867" y="81" type="qcurve" smooth="yes"/>
      <point x="867" y="44"/>
      <point x="867" y="44"/>
    </contour>
    <contour>
      <point x="838" y="1250" type="qcurve"/>
      <point x="804" y="1250"/>
      <point x="804" y="1250"/>
      <point x="804" y="1289" type="qcurve"/>
      <point x="804" y="1325"/>
      <point x="804" y="1325"/>
      <point x="838" y="1325" type="qcurve"/>
      <point x="870" y="1324"/>
      <point x="870" y="1324"/>
      <point x="870" y="1286" type="qcurve" smooth="yes"/>
      <point x="870" y="1249"/>
      <point x="870" y="1249"/>
    </contour>
    <contour>
      <point x="838" y="1325" type="qcurve"/>
      <point x="804" y="1325"/>
      <point x="804" y="1325"/>
      <point x="804" y="1361" type="qcurve"/>
      <point x="804" y="1403"/>
      <point x="804" y="1403"/>
      <point x="838" y="1403" type="qcurve"/>
      <point x="870" y="1402"/>
      <point x="870" y="1402"/>
      <point x="870" y="1361" type="qcurve"/>
      <point x="870" y="1324"/>
      <point x="870" y="1324"/>
    </contour>
    <contour>
      <point x="1025" y="-1" type="qcurve"/>
      <point x="984" y="-11"/>
      <point x="984" y="-11"/>
      <point x="984" y="24" type="qcurve"/>
      <point x="984" y="62"/>
      <point x="984" y="62"/>
      <point x="1026" y="74" type="qcurve"/>
      <point x="1066" y="88"/>
      <point x="1066" y="88"/>
      <point x="1066" y="50" type="qcurve"/>
      <point x="1066" y="11"/>
      <point x="1066" y="11"/>
    </contour>
    <contour>
      <point x="1026" y="74" type="qcurve"/>
      <point x="984" y="62"/>
      <point x="984" y="62"/>
      <point x="984" y="99" type="qcurve"/>
      <point x="984" y="136"/>
      <point x="984" y="136"/>
      <point x="1027" y="149" type="qcurve"/>
      <point x="1066" y="165"/>
      <point x="1066" y="165"/>
      <point x="1066" y="127" type="qcurve"/>
      <point x="1066" y="88"/>
      <point x="1066" y="88"/>
    </contour>
    <contour>
      <point x="1107" y="27" type="qcurve"/>
      <point x="1066" y="11"/>
      <point x="1066" y="11"/>
      <point x="1066" y="50" type="qcurve"/>
      <point x="1066" y="88"/>
      <point x="1066" y="88"/>
      <point x="1107" y="107" type="qcurve"/>
      <point x="1148" y="131"/>
      <point x="1148" y="131"/>
      <point x="1148" y="76" type="qcurve"/>
      <point x="1148" y="45"/>
      <point x="1148" y="45"/>
    </contour>
    <contour>
      <point x="1107" y="107" type="qcurve"/>
      <point x="1066" y="88"/>
      <point x="1066" y="88"/>
      <point x="1066" y="127" type="qcurve"/>
      <point x="1066" y="165"/>
      <point x="1066" y="165"/>
      <point x="1106" y="186" type="qcurve"/>
      <point x="1148" y="215"/>
      <point x="1148" y="215"/>
      <point x="1148" y="163" type="qcurve" smooth="yes"/>
      <point x="1148" y="131"/>
      <point x="1148" y="131"/>
    </contour>
    <component base="TopTerminalV3" xOffset="738" yOffset="-716"/>
    <component base="TopCurvedElement" xOffset="719" yOffset="3"/>
    <component base="RoundWaistElement270" xOffset="82"/>
    <component base="RoundDualySW" xOffset="85"/>
    <component base="RoundDualyNW" xOffset="85"/>
  </outline>
</glyph>
<glyph name="H" format="1">
  <advance width="1476"/>
  <unicode hex="0048"/>
  <outline>
    <contour>
      <point x="366" y="608" type="qcurve" smooth="yes"/>
      <point x="328" y="608"/>
      <point x="328" y="608"/>
      <point x="328" y="645" type="qcurve" smooth="yes"/>
      <point x="328" y="684"/>
      <point x="328" y="685"/>
      <point x="376" y="685" type="qcurve" smooth="yes"/>
      <point x="417" y="685"/>
      <point x="953" y="685"/>
      <point x="992" y="685" type="qcurve"/>
      <point x="1082" y="685"/>
      <point x="1148" y="619"/>
      <point x="1148" y="561" type="qcurve"/>
      <point x="1148" y="525"/>
      <point x="1148" y="525"/>
      <point x="1107" y="525" type="qcurve" smooth="yes"/>
      <point x="1066" y="525"/>
      <point x="1066" y="525"/>
      <point x="1066" y="561" type="qcurve" smooth="yes"/>
      <point x="1066" y="590"/>
      <point x="1036" y="608"/>
      <point x="988" y="608" type="qcurve" smooth="yes"/>
      <point x="964" y="608"/>
      <point x="404" y="608"/>
    </contour>
    <contour>
      <point x="328" y="808" type="qcurve"/>
      <point x="328" y="843"/>
      <point x="328" y="843"/>
      <point x="369" y="843" type="qcurve" smooth="yes"/>
      <point x="410" y="843"/>
      <point x="410" y="843"/>
      <point x="410" y="808" type="qcurve" smooth="yes"/>
      <point x="410" y="779"/>
      <point x="443" y="760"/>
      <point x="480" y="760" type="qcurve"/>
      <point x="520" y="760"/>
      <point x="1072" y="760"/>
      <point x="1110" y="760" type="qcurve" smooth="yes"/>
      <point x="1148" y="760"/>
      <point x="1148" y="760"/>
      <point x="1148" y="723" type="qcurve" smooth="yes"/>
      <point x="1148" y="685"/>
      <point x="1148" y="685"/>
      <point x="1110" y="685" type="qcurve" smooth="yes"/>
      <point x="1072" y="685"/>
      <point x="487" y="685"/>
      <point x="456" y="685" type="qcurve"/>
      <point x="385" y="685"/>
      <point x="328" y="743"/>
    </contour>
    <component base="CapStemPatternV3" xOffset="-82"/>
    <component base="CapStemPatternV3" xOffset="902"/>
  </outline>
</glyph>
<glyph name="L" format="1">
  <advance width="830.0"/>
  <unicode hex="004C"/>
  <outline>
    <contour>
      <point x="496" y="0" type="qcurve"/>
      <point x="328" y="0"/>
      <point x="328" y="0"/>
      <point x="328" y="38" type="qcurve"/>
      <point x="328" y="76"/>
      <point x="328" y="76"/>
      <point x="500" y="76" type="qcurve"/>
      <point x="590" y="76"/>
      <point x="656" y="11"/>
      <point x="656" y="-47" type="qcurve"/>
      <point x="656" y="-83"/>
      <point x="656" y="-83"/>
      <point x="615" y="-83" type="qcurve"/>
      <point x="574" y="-83"/>
      <point x="574" y="-83"/>
      <point x="574" y="-47" type="qcurve"/>
      <point x="574" y="-18"/>
      <point x="544" y="0"/>
    </contour>
    <contour>
      <point x="328" y="200" type="qcurve"/>
      <point x="328" y="235"/>
      <point x="328" y="235"/>
      <point x="369" y="235" type="qcurve"/>
      <point x="410" y="235"/>
      <point x="410" y="235"/>
      <point x="410" y="200" type="qcurve"/>
      <point x="410" y="171"/>
      <point x="443" y="152"/>
      <point x="480" y="152" type="qcurve"/>
      <point x="656" y="152"/>
      <point x="656" y="152"/>
      <point x="656" y="114" type="qcurve"/>
      <point x="656" y="76"/>
      <point x="656" y="76"/>
      <point x="456" y="76" type="qcurve"/>
      <point x="385" y="76"/>
      <point x="328" y="135"/>
    </contour>
    <component base="BaseElementV2" xOffset="-82"/>
    <component base="TopTerminalV3" xOffset="-82"/>
    <component base="MidElement" xOffset="-82"/>
    <component base="WaistElement" xOffset="-82"/>
    <component base="RightBotTerm" xOffset="410"/>
  </outline>
</glyph>
<glyph name="M" format="1">
  <advance width="1644"/>
  <unicode hex="004D"/>
  <outline>
    <contour>
      <point x="78" y="801" type="qcurve"/>
      <point x="78" y="842"/>
      <point x="78" y="842"/>
      <point x="116" y="842" type="qcurve"/>
      <point x="154" y="842"/>
      <point x="164" y="917"/>
      <point x="164" y="988" type="qcurve"/>
      <point x="164" y="1116"/>
      <point x="164" y="1216"/>
      <point x="164" y="1284" type="qcurve"/>
      <point x="164" y="1292"/>
      <point x="164" y="1292"/>
      <point x="206" y="1292" type="qcurve"/>
      <point x="246" y="1292"/>
      <point x="246" y="1292"/>
      <point x="246" y="1284" type="qcurve"/>
      <point x="246" y="1277"/>
      <point x="246" y="1168"/>
      <point x="246" y="933" type="qcurve"/>
      <point x="246" y="843"/>
      <point x="177" y="760"/>
      <point x="116" y="760" type="qcurve"/>
      <point x="78" y="760"/>
      <point x="78" y="760"/>
    </contour>
    <contour>
      <point x="572" y="695" type="qcurve"/>
      <point x="536" y="677"/>
      <point x="536" y="677"/>
      <point x="510" y="734" type="qcurve"/>
      <point x="476" y="811"/>
      <point x="375" y="1008"/>
      <point x="353" y="1055" type="qcurve"/>
      <point x="246" y="1292"/>
      <point x="246" y="1292"/>
      <point x="246" y="1318" type="qcurve"/>
      <point x="246" y="1368"/>
      <point x="246" y="1368"/>
      <point x="275" y="1368" type="qcurve"/>
      <point x="296" y="1368"/>
      <point x="296" y="1368"/>
      <point x="318" y="1317" type="qcurve"/>
      <point x="354" y="1231"/>
      <point x="402" y="1132"/>
      <point x="427" y="1078" type="qcurve" smooth="yes"/>
      <point x="478" y="967"/>
      <point x="542" y="842"/>
      <point x="581" y="762" type="qcurve"/>
      <point x="607" y="711"/>
      <point x="607" y="711"/>
    </contour>
    <contour>
      <point x="973" y="789" type="qcurve"/>
      <point x="991" y="824"/>
      <point x="991" y="824"/>
      <point x="1025" y="809" type="qcurve"/>
      <point x="1059" y="792"/>
      <point x="1110" y="850"/>
      <point x="1141" y="914" type="qcurve"/>
      <point x="1242" y="1132"/>
      <point x="1290" y="1231"/>
      <point x="1326" y="1317" type="qcurve"/>
      <point x="1348" y="1368"/>
      <point x="1348" y="1368"/>
      <point x="1369" y="1368" type="qcurve"/>
      <point x="1398" y="1368"/>
      <point x="1398" y="1368"/>
      <point x="1398" y="1318" type="qcurve"/>
      <point x="1398" y="1292"/>
      <point x="1398" y="1292"/>
      <point x="1183" y="833" type="qcurve"/>
      <point x="1142" y="750"/>
      <point x="1044" y="708"/>
      <point x="989" y="735" type="qcurve"/>
      <point x="955" y="751"/>
      <point x="955" y="751"/>
    </contour>
    <contour>
      <point x="1438" y="760" type="qcurve"/>
      <point x="1398" y="760"/>
      <point x="1398" y="760"/>
      <point x="1398" y="830" type="qcurve"/>
      <point x="1398" y="885"/>
      <point x="1398" y="984"/>
      <point x="1398" y="1071" type="qcurve"/>
      <point x="1398" y="1136"/>
      <point x="1448" y="1216"/>
      <point x="1529" y="1216" type="qcurve"/>
      <point x="1567" y="1216"/>
      <point x="1567" y="1216"/>
      <point x="1567" y="1175" type="qcurve"/>
      <point x="1567" y="1134"/>
      <point x="1567" y="1134"/>
      <point x="1529" y="1134" type="qcurve"/>
      <point x="1491" y="1134"/>
      <point x="1480" y="1086"/>
      <point x="1480" y="1005" type="qcurve"/>
      <point x="1480" y="965"/>
      <point x="1480" y="879"/>
      <point x="1480" y="830" type="qcurve"/>
      <point x="1480" y="760"/>
      <point x="1480" y="760"/>
    </contour>
    <contour>
      <point x="286" y="760" type="qcurve"/>
      <point x="246" y="760"/>
      <point x="246" y="760"/>
      <point x="246" y="830" type="qcurve"/>
      <point x="246" y="918"/>
      <point x="246" y="1115"/>
      <point x="246" y="1210" type="qcurve"/>
      <point x="246" y="1292"/>
      <point x="246" y="1292"/>
      <point x="290" y="1195" type="qcurve"/>
      <point x="328" y="1111"/>
      <point x="328" y="1111"/>
      <point x="328" y="1005" type="qcurve"/>
      <point x="328" y="953"/>
      <point x="328" y="864"/>
      <point x="328" y="830" type="qcurve"/>
      <point x="328" y="760"/>
      <point x="328" y="760"/>
    </contour>
    <contour>
      <point x="500" y="661" type="qcurve"/>
      <point x="465" y="645"/>
      <point x="465" y="645"/>
      <point x="440" y="700" type="qcurve"/>
      <point x="410" y="764"/>
      <point x="360" y="869"/>
      <point x="351" y="888" type="qcurve"/>
      <point x="328" y="943"/>
      <point x="328" y="943"/>
      <point x="328" y="1005" type="qcurve"/>
      <point x="328" y="1111"/>
      <point x="328" y="1111"/>
      <point x="353" y="1055" type="qcurve"/>
      <point x="377" y="1004"/>
      <point x="476" y="811"/>
      <point x="510" y="734" type="qcurve"/>
      <point x="536" y="677"/>
      <point x="536" y="677"/>
    </contour>
    <contour>
      <point x="598" y="139" type="qcurve"/>
      <point x="582" y="175"/>
      <point x="582" y="175"/>
      <point x="615" y="193" type="qcurve"/>
      <point x="649" y="208"/>
      <point x="636" y="283"/>
      <point x="606" y="348" type="qcurve"/>
      <point x="527" y="512"/>
      <point x="527" y="512"/>
      <point x="564" y="529" type="qcurve"/>
      <point x="598" y="545"/>
      <point x="598" y="545"/>
      <point x="700" y="331" type="qcurve"/>
      <point x="738" y="250"/>
      <point x="705" y="143"/>
      <point x="650" y="117" type="qcurve"/>
      <point x="616" y="101"/>
      <point x="616" y="101"/>
    </contour>
    <contour>
      <point x="803" y="199" type="qcurve"/>
      <point x="784" y="152"/>
      <point x="784" y="152"/>
      <point x="661" y="414" type="qcurve"/>
      <point x="633" y="474"/>
      <point x="641" y="564"/>
      <point x="713" y="598" type="qcurve"/>
      <point x="748" y="613"/>
      <point x="748" y="613"/>
      <point x="766" y="578" type="qcurve"/>
      <point x="783" y="540"/>
      <point x="783" y="540"/>
      <point x="749" y="523" type="qcurve"/>
      <point x="714" y="508"/>
      <point x="723" y="459"/>
      <point x="757" y="387" type="qcurve"/>
      <point x="822" y="245"/>
      <point x="822" y="245"/>
    </contour>
    <contour>
      <point x="841" y="199" type="qcurve"/>
      <point x="822" y="245"/>
      <point x="822" y="245"/>
      <point x="840" y="287" type="qcurve"/>
      <point x="867" y="341"/>
      <point x="926" y="470"/>
      <point x="945" y="508" type="qcurve"/>
      <point x="979" y="576"/>
      <point x="979" y="576"/>
      <point x="1012" y="560" type="qcurve"/>
      <point x="1046" y="544"/>
      <point x="1046" y="544"/>
      <point x="1014" y="479" type="qcurve"/>
      <point x="997" y="446"/>
      <point x="965" y="375"/>
      <point x="883" y="201" type="qcurve"/>
      <point x="860" y="152"/>
      <point x="860" y="152"/>
    </contour>
    <contour>
      <point x="902" y="152" type="qcurve"/>
      <point x="860" y="152"/>
      <point x="860" y="152"/>
      <point x="983" y="414" type="qcurve"/>
      <point x="1013" y="474"/>
      <point x="1088" y="525"/>
      <point x="1160" y="489" type="qcurve"/>
      <point x="1193" y="472"/>
      <point x="1193" y="472"/>
      <point x="1177" y="436" type="qcurve"/>
      <point x="1159" y="398"/>
      <point x="1159" y="398"/>
      <point x="1124" y="414" type="qcurve"/>
      <point x="1090" y="433"/>
      <point x="1058" y="395"/>
      <point x="1024" y="323" type="qcurve"/>
      <point x="944" y="152"/>
      <point x="944" y="152"/>
    </contour>
    <contour>
      <point x="1140" y="662" type="qcurve"/>
      <point x="1108" y="677"/>
      <point x="1108" y="677"/>
      <point x="1132" y="727" type="qcurve"/>
      <point x="1172" y="810"/>
      <point x="1264" y="1005"/>
      <point x="1287" y="1055" type="qcurve"/>
      <point x="1316" y="1117"/>
      <point x="1316" y="1117"/>
      <point x="1316" y="1032" type="qcurve"/>
      <point x="1316" y="953"/>
      <point x="1316" y="953"/>
      <point x="1293" y="898" type="qcurve"/>
      <point x="1284" y="879"/>
      <point x="1231" y="767"/>
      <point x="1196" y="694" type="qcurve"/>
      <point x="1175" y="646"/>
      <point x="1175" y="646"/>
    </contour>
    <contour>
      <point x="1358" y="760" type="qcurve"/>
      <point x="1316" y="760"/>
      <point x="1316" y="760"/>
      <point x="1316" y="830" type="qcurve"/>
      <point x="1316" y="864"/>
      <point x="1316" y="953"/>
      <point x="1316" y="1005" type="qcurve"/>
      <point x="1316" y="1117"/>
      <point x="1316" y="1117"/>
      <point x="1352" y="1194" type="qcurve"/>
      <point x="1398" y="1292"/>
      <point x="1398" y="1292"/>
      <point x="1398" y="1182" type="qcurve"/>
      <point x="1398" y="1115"/>
      <point x="1398" y="918"/>
      <point x="1398" y="830" type="qcurve"/>
      <point x="1398" y="760"/>
      <point x="1398" y="760"/>
    </contour>
    <contour>
      <point x="796" y="0" type="qcurve" smooth="yes"/>
      <point x="768" y="0"/>
      <point x="768" y="0"/>
      <point x="751" y="39" type="qcurve"/>
      <point x="732" y="80"/>
      <point x="732" y="80"/>
      <point x="776" y="80" type="qcurve"/>
      <point x="822" y="80"/>
      <point x="822" y="80"/>
      <point x="822" y="39" type="qcurve" smooth="yes"/>
      <point x="822" y="0"/>
      <point x="822" y="0"/>
    </contour>
    <contour>
      <point x="776" y="80" type="qcurve"/>
      <point x="732" y="80"/>
      <point x="732" y="80"/>
      <point x="716" y="116" type="qcurve"/>
      <point x="699" y="152"/>
      <point x="699" y="152"/>
      <point x="742" y="152" type="qcurve"/>
      <point x="784" y="152"/>
      <point x="784" y="152"/>
      <point x="802" y="118" type="qcurve"/>
      <point x="822" y="80"/>
      <point x="822" y="80"/>
    </contour>
    <contour>
      <point x="848" y="0" type="qcurve" smooth="yes"/>
      <point x="822" y="0"/>
      <point x="822" y="0"/>
      <point x="822" y="39" type="qcurve" smooth="yes"/>
      <point x="822" y="80"/>
      <point x="822" y="80"/>
      <point x="868" y="80" type="qcurve"/>
      <point x="911" y="80"/>
      <point x="911" y="80"/>
      <point x="893" y="39" type="qcurve"/>
      <point x="876" y="0"/>
      <point x="876" y="0"/>
    </contour>
    <contour>
      <point x="868" y="80" type="qcurve"/>
      <point x="822" y="80"/>
      <point x="822" y="80"/>
      <point x="842" y="118" type="qcurve"/>
      <point x="860" y="152"/>
      <point x="860" y="152"/>
      <point x="902" y="152" type="qcurve"/>
      <point x="944" y="152"/>
      <point x="944" y="152"/>
      <point x="927" y="116" type="qcurve"/>
      <point x="911" y="80"/>
      <point x="911" y="80"/>
    </contour>
    <contour>
      <point x="822" y="80" type="qcurve"/>
      <point x="784" y="152"/>
      <point x="784" y="152"/>
      <point x="803" y="199" type="qcurve"/>
      <point x="822" y="245"/>
      <point x="822" y="245"/>
      <point x="841" y="199" type="qcurve"/>
      <point x="860" y="152"/>
      <point x="860" y="152"/>
    </contour>
    <contour>
      <point x="205" y="1292" type="qcurve" smooth="yes"/>
      <point x="164" y="1292"/>
      <point x="164" y="1292"/>
      <point x="164" y="1330" type="qcurve"/>
      <point x="164" y="1368"/>
      <point x="164" y="1368"/>
      <point x="205" y="1368" type="qcurve" smooth="yes"/>
      <point x="246" y="1368"/>
      <point x="246" y="1368"/>
      <point x="246" y="1330" type="qcurve"/>
      <point x="246" y="1292"/>
      <point x="246" y="1292"/>
    </contour>
    <contour>
      <point x="1439" y="1216" type="qcurve"/>
      <point x="1398" y="1216"/>
      <point x="1398" y="1216"/>
      <point x="1398" y="1340" type="qcurve"/>
      <point x="1398" y="1368"/>
      <point x="1398" y="1368"/>
      <point x="1439" y="1368" type="qcurve" smooth="yes"/>
      <point x="1480" y="1368"/>
      <point x="1480" y="1368"/>
      <point x="1480" y="1340" type="qcurve"/>
      <point x="1480" y="1216"/>
      <point x="1480" y="1216"/>
    </contour>
    <component base="BaseTerminal" xOffset="-82"/>
    <component base="WaistElement" xOffset="-82"/>
    <component base="MidStemBot" xOffset="-82"/>
    <component base="BaseTerminal" xOffset="1070"/>
    <component base="WaistElement" xOffset="1070"/>
    <component base="MidStemBot" xOffset="1070"/>
    <component base="CCWWaist" xScale="0.9063077870366499" xyScale="0.42261826174069944" yxScale="-0.42261826174069944" yScale="0.9063077870366499" xOffset="626" yOffset="-116"/>
    <component base="CWWaist" xScale="0.9063077870366499" xyScale="-0.42261826174069944" yxScale="0.42261826174069944" yScale="0.9063077870366499" xOffset="561" yOffset="96"/>
  </outline>
</glyph>
<glyph name="N" format="1">
  <advance width="1516"/>
  <unicode hex="004E"/>
  <outline>
    <contour>
      <point x="286" y="760" type="qcurve"/>
      <point x="246" y="760"/>
      <point x="246" y="760"/>
      <point x="246" y="830" type="qcurve"/>
      <point x="246" y="866"/>
      <point x="246" y="1109"/>
      <point x="246" y="1206" type="qcurve"/>
      <point x="246" y="1292"/>
      <point x="246" y="1292"/>
      <point x="288" y="1234" type="qcurve"/>
      <point x="328" y="1185"/>
      <point x="328" y="1185"/>
      <point x="328" y="1107" type="qcurve"/>
      <point x="328" y="1050"/>
      <point x="328" y="1050"/>
      <point x="328" y="999" type="qcurve"/>
      <point x="328" y="952"/>
      <point x="328" y="866"/>
      <point x="328" y="830" type="qcurve"/>
      <point x="328" y="760"/>
      <point x="328" y="760"/>
    </contour>
    <contour>
      <point x="741" y="768" type="qcurve"/>
      <point x="710" y="740"/>
      <point x="710" y="740"/>
      <point x="662" y="792" type="qcurve"/>
      <point x="579" y="887"/>
      <point x="387" y="1112"/>
      <point x="288" y="1234" type="qcurve"/>
      <point x="246" y="1292"/>
      <point x="246" y="1292"/>
      <point x="246" y="1331" type="qcurve" smooth="yes"/>
      <point x="246" y="1368"/>
      <point x="246" y="1368"/>
      <point x="266" y="1368" type="qcurve"/>
      <point x="276" y="1368"/>
      <point x="276" y="1368"/>
      <point x="347" y="1284" type="qcurve"/>
      <point x="469" y="1141"/>
      <point x="640" y="940"/>
      <point x="726" y="847" type="qcurve"/>
      <point x="772" y="795"/>
      <point x="772" y="795"/>
    </contour>
    <contour>
      <point x="1250" y="0" type="qcurve"/>
      <point x="1240" y="0"/>
      <point x="1240" y="0"/>
      <point x="1169" y="84" type="qcurve"/>
      <point x="1047" y="227"/>
      <point x="879" y="426"/>
      <point x="793" y="522" type="qcurve"/>
      <point x="748" y="573"/>
      <point x="748" y="573"/>
      <point x="779" y="600" type="qcurve"/>
      <point x="810" y="627"/>
      <point x="810" y="627"/>
      <point x="855" y="576" type="qcurve"/>
      <point x="938" y="478"/>
      <point x="1188" y="181"/>
      <point x="1223" y="140" type="qcurve"/>
      <point x="1270" y="76"/>
      <point x="1270" y="76"/>
      <point x="1270" y="37" type="qcurve" smooth="yes"/>
      <point x="1270" y="0"/>
      <point x="1270" y="0"/>
    </contour>
    <contour>
      <point x="1223" y="140" type="qcurve"/>
      <point x="1188" y="181"/>
      <point x="1188" y="181"/>
      <point x="1188" y="261" type="qcurve"/>
      <point x="1188" y="311"/>
      <point x="1188" y="311"/>
      <point x="1188" y="369" type="qcurve"/>
      <point x="1188" y="416"/>
      <point x="1188" y="502"/>
      <point x="1188" y="538" type="qcurve"/>
      <point x="1188" y="608"/>
      <point x="1188" y="608"/>
      <point x="1230" y="608" type="qcurve"/>
      <point x="1270" y="608"/>
      <point x="1270" y="608"/>
      <point x="1270" y="538" type="qcurve"/>
      <point x="1270" y="502"/>
      <point x="1270" y="259"/>
      <point x="1270" y="162" type="qcurve"/>
      <point x="1270" y="76"/>
      <point x="1270" y="76"/>
    </contour>
    <contour>
      <point x="78" y="801" type="qcurve"/>
      <point x="78" y="842"/>
      <point x="78" y="842"/>
      <point x="116" y="842" type="qcurve"/>
      <point x="154" y="842"/>
      <point x="164" y="917"/>
      <point x="164" y="1258" type="qcurve"/>
      <point x="164" y="1292"/>
      <point x="164" y="1292"/>
      <point x="205" y="1292" type="qcurve"/>
      <point x="246" y="1292"/>
      <point x="246" y="1292"/>
      <point x="246" y="933" type="qcurve"/>
      <point x="246" y="843"/>
      <point x="177" y="760"/>
      <point x="116" y="760" type="qcurve"/>
      <point x="78" y="760"/>
      <point x="78" y="760"/>
    </contour>
    <contour>
      <point x="545" y="654" type="qcurve"/>
      <point x="520" y="684"/>
      <point x="520" y="684"/>
      <point x="547" y="708" type="qcurve"/>
      <point x="576" y="734"/>
      <point x="543" y="803"/>
      <point x="496" y="858" type="qcurve"/>
      <point x="328" y="1056"/>
      <point x="328" y="1055"/>
      <point x="328" y="1107" type="qcurve"/>
      <point x="328" y="1185"/>
      <point x="328" y="1185"/>
      <point x="621" y="838" type="qcurve"/>
      <point x="663" y="792"/>
      <point x="647" y="686"/>
      <point x="614" y="658" type="qcurve"/>
      <point x="572" y="622"/>
      <point x="572" y="622"/>
    </contour>
    <contour>
      <point x="1188" y="261" type="qcurve"/>
      <point x="1188" y="181"/>
      <point x="1188" y="181"/>
      <point x="903" y="519" type="qcurve"/>
      <point x="862" y="569"/>
      <point x="851" y="663"/>
      <point x="912" y="715" type="qcurve"/>
      <point x="941" y="740"/>
      <point x="941" y="740"/>
      <point x="968" y="710" type="qcurve"/>
      <point x="995" y="678"/>
      <point x="995" y="678"/>
      <point x="966" y="653" type="qcurve"/>
      <point x="937" y="629"/>
      <point x="958" y="584"/>
      <point x="1011" y="523" type="qcurve"/>
      <point x="1188" y="311"/>
      <point x="1188" y="311"/>
    </contour>
    <contour>
      <point x="1311" y="76" type="qcurve"/>
      <point x="1270" y="76"/>
      <point x="1270" y="76"/>
      <point x="1270" y="463" type="qcurve"/>
      <point x="1270" y="528"/>
      <point x="1320" y="608"/>
      <point x="1401" y="608" type="qcurve"/>
      <point x="1439" y="608"/>
      <point x="1439" y="608"/>
      <point x="1439" y="567" type="qcurve"/>
      <point x="1439" y="526"/>
      <point x="1439" y="526"/>
      <point x="1401" y="526" type="qcurve"/>
      <point x="1363" y="526"/>
      <point x="1352" y="478"/>
      <point x="1352" y="397" type="qcurve"/>
      <point x="1352" y="76"/>
      <point x="1352" y="76"/>
    </contour>
    <contour>
      <point x="205" y="1292" type="qcurve" smooth="yes"/>
      <point x="164" y="1292"/>
      <point x="164" y="1292"/>
      <point x="164" y="1330" type="qcurve"/>
      <point x="164" y="1368"/>
      <point x="164" y="1368"/>
      <point x="205" y="1368" type="qcurve" smooth="yes"/>
      <point x="246" y="1368"/>
      <point x="246" y="1368"/>
      <point x="246" y="1330" type="qcurve"/>
      <point x="246" y="1292"/>
      <point x="246" y="1292"/>
    </contour>
    <contour>
      <point x="1311" y="0" type="qcurve" smooth="yes"/>
      <point x="1270" y="0"/>
      <point x="1270" y="0"/>
      <point x="1270" y="38" type="qcurve"/>
      <point x="1270" y="76"/>
      <point x="1270" y="76"/>
      <point x="1311" y="76" type="qcurve" smooth="yes"/>
      <point x="1352" y="76"/>
      <point x="1352" y="76"/>
      <point x="1352" y="38" type="qcurve"/>
      <point x="1352" y="0"/>
      <point x="1352" y="0"/>
    </contour>
    <component base="BaseTerminal" xOffset="-82"/>
    <component base="TopTerminalV3" xOffset="942"/>
    <component base="MidStemBot" xOffset="-82"/>
    <component base="MidStemTop" xOffset="942"/>
    <component base="WaistElement" xOffset="-82"/>
    <component base="WaistElement" xOffset="942"/>
    <component base="WaistElement" xScale="0.7493523459427383" xyScale="0.6621714744913996" yxScale="-0.6621714744913996" yScale="0.7493523459427383" xOffset="967" yOffset="-46"/>
  </outline>
</glyph>
<glyph name="Q" format="1">
  <advance width="1640"/>
  <unicode hex="0051"/>
  <outline>
    <contour>
      <point x="679" y="-222" type="qcurve"/>
      <point x="679" y="-180"/>
      <point x="679" y="-180"/>
      <point x="703" y="-180" type="qcurve"/>
      <point x="729" y="-180"/>
      <point x="738" y="-153"/>
      <point x="738" y="-134" type="qcurve" smooth="yes"/>
      <point x="738" y="-113"/>
      <point x="738" y="-96"/>
      <point x="738" y="-65" type="qcurve"/>
      <point x="738" y="-25"/>
      <point x="738" y="-25"/>
      <point x="779" y="-28" type="qcurve"/>
      <point x="820" y="-29"/>
      <point x="820" y="-29"/>
      <point x="820" y="-65" type="qcurve"/>
      <point x="820" y="-97"/>
      <point x="820" y="-122"/>
      <point x="820" y="-143" type="qcurve" smooth="yes"/>
      <point x="820" y="-191"/>
      <point x="764" y="-262"/>
      <point x="703" y="-262" type="qcurve"/>
      <point x="679" y="-262"/>
      <point x="679" y="-262"/>
    </contour>
    <contour>
      <point x="942" y="-236" type="qcurve"/>
      <point x="913" y="-266"/>
      <point x="913" y="-266"/>
      <point x="885" y="-238" type="qcurve"/>
      <point x="866" y="-221"/>
      <point x="820" y="-161"/>
      <point x="820" y="-116" type="qcurve" smooth="yes"/>
      <point x="820" y="-95"/>
      <point x="820" y="-97"/>
      <point x="820" y="-65" type="qcurve"/>
      <point x="820" y="-29"/>
      <point x="820" y="-29"/>
      <point x="861" y="-28" type="qcurve"/>
      <point x="902" y="-25"/>
      <point x="902" y="-25"/>
      <point x="902" y="-65" type="qcurve"/>
      <point x="902" y="-97"/>
      <point x="902" y="-93"/>
      <point x="902" y="-108" type="qcurve"/>
      <point x="902" y="-133"/>
      <point x="914" y="-151"/>
      <point x="943" y="-180" type="qcurve"/>
      <point x="971" y="-208"/>
      <point x="971" y="-208"/>
    </contour>
    <component base="O"/>
    <component base="BaseTerminal" xOffset="492" yOffset="-414"/>
  </outline>
</glyph>
<glyph name="R" format="1">
  <advance width="994"/>
  <unicode hex="0052"/>
  <outline>
    <contour>
      <point x="78" y="193" type="qcurve"/>
      <point x="78" y="234"/>
      <point x="78" y="234"/>
      <point x="116" y="234" type="qcurve"/>
      <point x="154" y="234"/>
      <point x="164" y="309"/>
      <point x="164" y="380" type="qcurve"/>
      <point x="164" y="383"/>
      <point x="164" y="386"/>
      <point x="164" y="424" type="qcurve" smooth="yes"/>
      <point x="164" y="462"/>
      <point x="164" y="462"/>
      <point x="205" y="462" type="qcurve" smooth="yes"/>
      <point x="246" y="462"/>
      <point x="246" y="462"/>
      <point x="246" y="424" type="qcurve" smooth="yes"/>
      <point x="246" y="386"/>
      <point x="246" y="368"/>
      <point x="246" y="325" type="qcurve"/>
      <point x="246" y="235"/>
      <point x="177" y="152"/>
      <point x="116" y="152" type="qcurve"/>
      <point x="78" y="152"/>
      <point x="78" y="152"/>
    </contour>
    <contour>
      <point x="78" y="655" type="qcurve"/>
      <point x="78" y="696"/>
      <point x="78" y="696"/>
      <point x="116" y="696" type="qcurve"/>
      <point x="154" y="696"/>
      <point x="164" y="771"/>
      <point x="164" y="842" type="qcurve"/>
      <point x="164" y="1026"/>
      <point x="164" y="1140"/>
      <point x="164" y="1178" type="qcurve" smooth="yes"/>
      <point x="164" y="1216"/>
      <point x="164" y="1216"/>
      <point x="205" y="1216" type="qcurve" smooth="yes"/>
      <point x="246" y="1216"/>
      <point x="246" y="1216"/>
      <point x="246" y="1178" type="qcurve" smooth="yes"/>
      <point x="246" y="1140"/>
      <point x="246" y="1026"/>
      <point x="246" y="788" type="qcurve"/>
      <point x="246" y="697"/>
      <point x="177" y="614"/>
      <point x="116" y="614" type="qcurve"/>
      <point x="78" y="614"/>
      <point x="78" y="614"/>
    </contour>
    <contour>
      <point x="287" y="152" type="qcurve" smooth="yes"/>
      <point x="246" y="152"/>
      <point x="246" y="152"/>
      <point x="246" y="190" type="qcurve" smooth="yes"/>
      <point x="246" y="228"/>
      <point x="246" y="247"/>
      <point x="246" y="317" type="qcurve"/>
      <point x="246" y="382"/>
      <point x="296" y="462"/>
      <point x="377" y="462" type="qcurve"/>
      <point x="415" y="462"/>
      <point x="415" y="462"/>
      <point x="415" y="421" type="qcurve"/>
      <point x="415" y="380"/>
      <point x="415" y="380"/>
      <point x="377" y="380" type="qcurve"/>
      <point x="339" y="380"/>
      <point x="328" y="332"/>
      <point x="328" y="251" type="qcurve"/>
      <point x="328" y="247"/>
      <point x="328" y="228"/>
      <point x="328" y="190" type="qcurve" smooth="yes"/>
      <point x="328" y="152"/>
      <point x="328" y="152"/>
    </contour>
    <contour>
      <point x="287" y="614" type="qcurve" smooth="yes"/>
      <point x="246" y="614"/>
      <point x="246" y="614"/>
      <point x="246" y="652" type="qcurve" smooth="yes"/>
      <point x="246" y="690"/>
      <point x="246" y="1003"/>
      <point x="246" y="1084" type="qcurve"/>
      <point x="246" y="1137"/>
      <point x="309" y="1216"/>
      <point x="353" y="1216" type="qcurve"/>
      <point x="392" y="1216"/>
      <point x="392" y="1216"/>
      <point x="392" y="1174" type="qcurve"/>
      <point x="392" y="1134"/>
      <point x="392" y="1134"/>
      <point x="344" y="1134" type="qcurve" smooth="yes"/>
      <point x="326" y="1134"/>
      <point x="328" y="1026"/>
      <point x="328" y="995" type="qcurve" smooth="yes"/>
      <point x="328" y="801"/>
      <point x="328" y="690"/>
      <point x="328" y="652" type="qcurve" smooth="yes"/>
      <point x="328" y="614"/>
      <point x="328" y="614"/>
    </contour>
    <contour>
      <point x="335" y="462" type="qcurve"/>
      <point x="328" y="462"/>
      <point x="328" y="462"/>
      <point x="328" y="500" type="qcurve"/>
      <point x="328" y="538"/>
      <point x="328" y="538"/>
      <point x="335" y="538" type="qcurve"/>
      <point x="338" y="538"/>
      <point x="354" y="538"/>
      <point x="360" y="538" type="qcurve"/>
      <point x="366" y="538"/>
      <point x="408" y="540"/>
      <point x="425" y="542" type="qcurve"/>
      <point x="442" y="544"/>
      <point x="442" y="544"/>
      <point x="464" y="510" type="qcurve"/>
      <point x="486" y="476"/>
      <point x="486" y="476"/>
      <point x="473" y="474" type="qcurve"/>
      <point x="444" y="468"/>
      <point x="383" y="462"/>
      <point x="352" y="462" type="qcurve" smooth="yes"/>
      <point x="350" y="462"/>
      <point x="337" y="462"/>
    </contour>
    <contour>
      <point x="335" y="538" type="qcurve"/>
      <point x="328" y="538"/>
      <point x="328" y="538"/>
      <point x="328" y="578" type="qcurve"/>
      <point x="328" y="614"/>
      <point x="328" y="614"/>
      <point x="335" y="614" type="qcurve"/>
      <point x="337" y="614"/>
      <point x="349" y="614"/>
      <point x="355" y="614" type="qcurve"/>
      <point x="363" y="614"/>
      <point x="371" y="614"/>
      <point x="383" y="615" type="qcurve"/>
      <point x="395" y="616"/>
      <point x="395" y="616"/>
      <point x="419" y="579" type="qcurve"/>
      <point x="442" y="544"/>
      <point x="442" y="544"/>
      <point x="425" y="542" type="qcurve"/>
      <point x="408" y="540"/>
      <point x="366" y="538"/>
      <point x="360" y="538" type="qcurve"/>
      <point x="354" y="538"/>
      <point x="340" y="538"/>
    </contour>
    <contour>
      <point x="640" y="984" type="qcurve" smooth="yes"/>
      <point x="617" y="1019"/>
      <point x="617" y="1019"/>
      <point x="623" y="1023" type="qcurve" smooth="yes"/>
      <point x="673" y="1054"/>
      <point x="498" y="1216"/>
      <point x="398" y="1216" type="qcurve" smooth="yes"/>
      <point x="383" y="1216"/>
      <point x="361" y="1216"/>
      <point x="352" y="1216" type="qcurve"/>
      <point x="328" y="1216"/>
      <point x="328" y="1216"/>
      <point x="328" y="1250" type="qcurve"/>
      <point x="328" y="1292"/>
      <point x="328" y="1292"/>
      <point x="376" y="1292" type="qcurve"/>
      <point x="397" y="1292"/>
      <point x="434" y="1293"/>
      <point x="457" y="1290" type="qcurve" smooth="yes"/>
      <point x="589" y="1275"/>
      <point x="762" y="1015"/>
      <point x="669" y="954" type="qcurve"/>
      <point x="663" y="950"/>
      <point x="663" y="950"/>
    </contour>
    <contour>
      <point x="877" y="1007" type="qcurve" smooth="yes"/>
      <point x="868" y="966"/>
      <point x="868" y="966"/>
      <point x="832" y="971" type="qcurve"/>
      <point x="790" y="987"/>
      <point x="589" y="1275"/>
      <point x="457" y="1290" type="qcurve"/>
      <point x="391" y="1296"/>
      <point x="328" y="1362"/>
      <point x="328" y="1409" type="qcurve"/>
      <point x="328" y="1444"/>
      <point x="328" y="1444"/>
      <point x="369" y="1444" type="qcurve"/>
      <point x="410" y="1444"/>
      <point x="410" y="1444"/>
      <point x="410" y="1409" type="qcurve"/>
      <point x="410" y="1380"/>
      <point x="427" y="1364"/>
      <point x="445" y="1361" type="qcurve" smooth="yes"/>
      <point x="622" y="1336"/>
      <point x="808" y="1146"/>
      <point x="836" y="1069" type="qcurve"/>
      <point x="886" y="1048"/>
      <point x="886" y="1048"/>
    </contour>
    <contour>
      <point x="645" y="82" type="qcurve"/>
      <point x="623" y="114"/>
      <point x="623" y="114"/>
      <point x="652" y="138" type="qcurve"/>
      <point x="683" y="158"/>
      <point x="658" y="230"/>
      <point x="617" y="289" type="qcurve"/>
      <point x="486" y="476"/>
      <point x="486" y="476"/>
      <point x="525" y="486" type="qcurve"/>
      <point x="563" y="499"/>
      <point x="563" y="499"/>
      <point x="713" y="288" type="qcurve"/>
      <point x="764" y="215"/>
      <point x="748" y="104"/>
      <point x="700" y="69" type="qcurve"/>
      <point x="669" y="47"/>
      <point x="669" y="47"/>
    </contour>
    <contour>
      <point x="602" y="609" type="qcurve"/>
      <point x="584" y="599"/>
      <point x="584" y="599"/>
      <point x="562" y="630" type="qcurve" smooth="yes"/>
      <point x="539" y="663"/>
      <point x="539" y="663"/>
      <point x="556" y="673" type="qcurve"/>
      <point x="609" y="703"/>
      <point x="644" y="755"/>
      <point x="596" y="802" type="qcurve" smooth="yes"/>
      <point x="591" y="807"/>
      <point x="591" y="807"/>
      <point x="620" y="837" type="qcurve" smooth="yes"/>
      <point x="649" y="866"/>
      <point x="649" y="866"/>
      <point x="660" y="855" type="qcurve"/>
      <point x="723" y="795"/>
      <point x="696" y="672"/>
    </contour>
    <contour>
      <point x="844" y="170" type="qcurve"/>
      <point x="811" y="147"/>
      <point x="811" y="147"/>
      <point x="658" y="366" type="qcurve"/>
      <point x="620" y="421"/>
      <point x="613" y="511"/>
      <point x="678" y="557" type="qcurve"/>
      <point x="710" y="577"/>
      <point x="710" y="577"/>
      <point x="734" y="546" type="qcurve"/>
      <point x="757" y="511"/>
      <point x="757" y="511"/>
      <point x="726" y="489" type="qcurve"/>
      <point x="695" y="468"/>
      <point x="821" y="264"/>
      <point x="844" y="234" type="qcurve"/>
      <point x="875" y="191"/>
      <point x="875" y="191"/>
    </contour>
    <contour>
      <point x="647" y="541" type="qcurve"/>
      <point x="632" y="531"/>
      <point x="632" y="531"/>
      <point x="607" y="565" type="qcurve"/>
      <point x="584" y="599"/>
      <point x="584" y="599"/>
      <point x="602" y="609" type="qcurve"/>
      <point x="678" y="658"/>
      <point x="774" y="812"/>
      <point x="858" y="833" type="qcurve"/>
      <point x="866" y="835"/>
      <point x="866" y="835"/>
      <point x="876" y="794" type="qcurve" smooth="yes"/>
      <point x="886" y="753"/>
      <point x="886" y="753"/>
      <point x="827" y="749" type="qcurve"/>
      <point x="812" y="691"/>
      <point x="720" y="592"/>
    </contour>
    <contour>
      <point x="481" y="554" type="qcurve"/>
      <point x="442" y="544"/>
      <point x="442" y="544"/>
      <point x="419" y="579" type="qcurve"/>
      <point x="395" y="616"/>
      <point x="395" y="616"/>
      <point x="435" y="623" type="qcurve"/>
      <point x="472" y="634"/>
      <point x="471" y="634"/>
      <point x="490" y="606" type="qcurve" smooth="yes"/>
      <point x="517" y="567"/>
      <point x="517" y="567"/>
    </contour>
    <contour>
      <point x="525" y="486" type="qcurve"/>
      <point x="486" y="476"/>
      <point x="486" y="476"/>
      <point x="464" y="510" type="qcurve"/>
      <point x="442" y="544"/>
      <point x="442" y="544"/>
      <point x="481" y="554" type="qcurve"/>
      <point x="517" y="567"/>
      <point x="517" y="567"/>
      <point x="538" y="534" type="qcurve"/>
      <point x="563" y="499"/>
      <point x="563" y="499"/>
    </contour>
    <contour>
      <point x="551" y="581" type="qcurve"/>
      <point x="517" y="567"/>
      <point x="517" y="567"/>
      <point x="490" y="606" type="qcurve" smooth="yes"/>
      <point x="471" y="634"/>
      <point x="472" y="634"/>
      <point x="507" y="646" type="qcurve"/>
      <point x="539" y="663"/>
      <point x="539" y="663"/>
      <point x="562" y="630" type="qcurve"/>
      <point x="584" y="599"/>
      <point x="584" y="599"/>
    </contour>
    <contour>
      <point x="599" y="514" type="qcurve"/>
      <point x="563" y="499"/>
      <point x="563" y="499"/>
      <point x="538" y="534" type="qcurve"/>
      <point x="517" y="567"/>
      <point x="517" y="567"/>
      <point x="551" y="581" type="qcurve"/>
      <point x="584" y="599"/>
      <point x="584" y="599"/>
      <point x="607" y="565" type="qcurve"/>
      <point x="632" y="531"/>
      <point x="632" y="531"/>
    </contour>
    <contour>
      <point x="732" y="836" type="qcurve"/>
      <point x="681" y="836"/>
      <point x="681" y="836"/>
      <point x="687" y="869" type="qcurve"/>
      <point x="690" y="902"/>
      <point x="690" y="902"/>
      <point x="732" y="902" type="qcurve" smooth="yes"/>
      <point x="773" y="902"/>
      <point x="773" y="902"/>
      <point x="773" y="869" type="qcurve"/>
      <point x="769" y="836"/>
      <point x="769" y="836"/>
    </contour>
    <contour>
      <point x="732" y="902" type="qcurve" smooth="yes"/>
      <point x="690" y="902"/>
      <point x="690" y="902"/>
      <point x="690" y="932" type="qcurve"/>
      <point x="689" y="966"/>
      <point x="689" y="966"/>
      <point x="732" y="966" type="qcurve" smooth="yes"/>
      <point x="773" y="966"/>
      <point x="773" y="966"/>
      <point x="773" y="932" type="qcurve"/>
      <point x="773" y="902"/>
      <point x="773" y="902"/>
    </contour>
    <contour>
      <point x="815" y="836" type="qcurve"/>
      <point x="769" y="836"/>
      <point x="769" y="836"/>
      <point x="773" y="869" type="qcurve"/>
      <point x="773" y="902"/>
      <point x="773" y="902"/>
      <point x="815" y="902" type="qcurve" smooth="yes"/>
      <point x="857" y="902"/>
      <point x="857" y="902"/>
      <point x="856" y="869" type="qcurve"/>
      <point x="853" y="836"/>
      <point x="853" y="836"/>
    </contour>
    <contour>
      <point x="815" y="902" type="qcurve" smooth="yes"/>
      <point x="773" y="902"/>
      <point x="773" y="902"/>
      <point x="773" y="932" type="qcurve"/>
      <point x="773" y="966"/>
      <point x="773" y="966"/>
      <point x="815" y="966" type="qcurve" smooth="yes"/>
      <point x="857" y="966"/>
      <point x="857" y="966"/>
      <point x="857" y="932" type="qcurve"/>
      <point x="857" y="902"/>
      <point x="857" y="902"/>
    </contour>
    <component base="WaistElement" xOffset="-82" yOffset="-146"/>
    <component base="BaseTerminal" xOffset="-82"/>
    <component base="TopElementV2" xOffset="-82"/>
    <component base="CCWTerm" xScale="-0.8191520442889918" xyScale="-0.5735764363510462" yxScale="0.5735764363510462" yScale="-0.8191520442889918" xOffset="319" yOffset="1292"/>
  </outline>
</glyph>
<glyph name="T" format="1">
  <advance width="1038"/>
  <unicode hex="0054"/>
  <outline>
    <contour>
      <point x="211" y="1216" type="qcurve"/>
      <point x="174" y="1216"/>
      <point x="174" y="1216"/>
      <point x="174" y="1254" type="qcurve"/>
      <point x="174" y="1292"/>
      <point x="174" y="1292"/>
      <point x="211" y="1292" type="qcurve"/>
      <point x="222" y="1292"/>
      <point x="262" y="1292"/>
      <point x="281" y="1292" type="qcurve"/>
      <point x="371" y="1292"/>
      <point x="437" y="1227"/>
      <point x="437" y="1169" type="qcurve"/>
      <point x="437" y="1133"/>
      <point x="437" y="1133"/>
      <point x="396" y="1133" type="qcurve"/>
      <point x="355" y="1133"/>
      <point x="355" y="1133"/>
      <point x="355" y="1169" type="qcurve"/>
      <point x="355" y="1198"/>
      <point x="325" y="1216"/>
      <point x="277" y="1216" type="qcurve"/>
      <point x="258" y="1216"/>
      <point x="223" y="1216"/>
    </contour>
    <contour>
      <point x="174" y="1416" type="qcurve"/>
      <point x="174" y="1451"/>
      <point x="174" y="1451"/>
      <point x="215" y="1451" type="qcurve"/>
      <point x="256" y="1451"/>
      <point x="256" y="1451"/>
      <point x="256" y="1416" type="qcurve"/>
      <point x="256" y="1387"/>
      <point x="289" y="1368"/>
      <point x="326" y="1368" type="qcurve" smooth="yes"/>
      <point x="347" y="1368"/>
      <point x="388" y="1368"/>
      <point x="399" y="1368" type="qcurve"/>
      <point x="437" y="1368"/>
      <point x="437" y="1368"/>
      <point x="437" y="1331" type="qcurve"/>
      <point x="437" y="1292"/>
      <point x="437" y="1292"/>
      <point x="399" y="1292" type="qcurve"/>
      <point x="388" y="1292"/>
      <point x="323" y="1292"/>
      <point x="302" y="1292" type="qcurve"/>
      <point x="231" y="1292"/>
      <point x="174" y="1351"/>
    </contour>
    <contour>
      <point x="638" y="1216" type="qcurve"/>
      <point x="601" y="1216"/>
      <point x="601" y="1216"/>
      <point x="601" y="1254" type="qcurve"/>
      <point x="601" y="1292"/>
      <point x="601" y="1292"/>
      <point x="638" y="1292" type="qcurve"/>
      <point x="649" y="1292"/>
      <point x="702" y="1292"/>
      <point x="708" y="1292" type="qcurve"/>
      <point x="798" y="1292"/>
      <point x="864" y="1227"/>
      <point x="864" y="1170" type="qcurve"/>
      <point x="864" y="1133"/>
      <point x="864" y="1133"/>
      <point x="823" y="1133" type="qcurve"/>
      <point x="782" y="1133"/>
      <point x="782" y="1133"/>
      <point x="782" y="1169" type="qcurve"/>
      <point x="782" y="1198"/>
      <point x="752" y="1216"/>
      <point x="704" y="1216" type="qcurve"/>
      <point x="685" y="1216"/>
      <point x="649" y="1216"/>
    </contour>
    <contour>
      <point x="601" y="1416" type="qcurve"/>
      <point x="601" y="1451"/>
      <point x="601" y="1451"/>
      <point x="642" y="1451" type="qcurve"/>
      <point x="683" y="1451"/>
      <point x="683" y="1451"/>
      <point x="683" y="1416" type="qcurve"/>
      <point x="683" y="1387"/>
      <point x="716" y="1368"/>
      <point x="753" y="1368" type="qcurve"/>
      <point x="774" y="1368"/>
      <point x="815" y="1368"/>
      <point x="826" y="1368" type="qcurve"/>
      <point x="864" y="1368"/>
      <point x="864" y="1368"/>
      <point x="864" y="1331" type="qcurve"/>
      <point x="864" y="1292"/>
      <point x="864" y="1292"/>
      <point x="826" y="1292" type="qcurve"/>
      <point x="815" y="1292"/>
      <point x="750" y="1292"/>
      <point x="729" y="1292" type="qcurve"/>
      <point x="658" y="1292"/>
      <point x="601" y="1351"/>
    </contour>
    <component base="BaseTerminal" xOffset="191"/>
    <component base="RightTopTerminal" xOffset="618" yOffset="1216"/>
    <component base="LeftTopTerm" xOffset="-236" yOffset="1216"/>
    <component base="WaistElement" xOffset="191"/>
    <component base="TopElementV1" xOffset="191" yOffset="1216"/>
    <component base="MidElement" xOffset="191"/>
  </outline>
</glyph>
<glyph name="U" format="1">
  <advance width="1321"/>
  <unicode hex="0055"/>
  <outline>
    <contour>
      <point x="504" y="-13" type="qcurve"/>
      <point x="343" y="22"/>
      <point x="150" y="248"/>
      <point x="150" y="518" type="qcurve"/>
      <point x="150" y="608"/>
      <point x="150" y="608"/>
      <point x="191" y="608" type="qcurve"/>
      <point x="232" y="608"/>
      <point x="232" y="608"/>
      <point x="232" y="446" type="qcurve"/>
      <point x="232" y="211"/>
      <point x="542" y="19"/>
      <point x="574" y="19" type="qcurve"/>
      <point x="574" y="-57"/>
      <point x="574" y="-57"/>
      <point x="537" y="-57" type="qcurve" smooth="yes"/>
      <point x="499" y="-57"/>
      <point x="499" y="-57"/>
    </contour>
    <contour>
      <point x="526" y="57" type="qcurve"/>
      <point x="275" y="121"/>
      <point x="201" y="608"/>
      <point x="345" y="608" type="qcurve"/>
      <point x="380" y="608"/>
      <point x="380" y="608"/>
      <point x="380" y="567" type="qcurve"/>
      <point x="380" y="526"/>
      <point x="380" y="526"/>
      <point x="316" y="526" type="qcurve"/>
      <point x="309" y="357"/>
      <point x="415" y="174"/>
      <point x="532" y="133" type="qcurve"/>
      <point x="579" y="123"/>
      <point x="579" y="123"/>
      <point x="579" y="87" type="qcurve" smooth="yes"/>
      <point x="579" y="65"/>
      <point x="556" y="52"/>
    </contour>
    <contour>
      <point x="798" y="-18" type="qcurve"/>
      <point x="743" y="-26"/>
      <point x="743" y="-26"/>
      <point x="743" y="12" type="qcurve" smooth="yes"/>
      <point x="743" y="34"/>
      <point x="774" y="53"/>
      <point x="796" y="58" type="qcurve"/>
      <point x="1034" y="115"/>
      <point x="1115" y="607"/>
      <point x="1201" y="607" type="qcurve"/>
      <point x="1244" y="607"/>
      <point x="1244" y="607"/>
      <point x="1244" y="566" type="qcurve"/>
      <point x="1244" y="520"/>
      <point x="1244" y="518"/>
      <point x="1165" y="518" type="qcurve"/>
      <point x="1177" y="265"/>
      <point x="980" y="21"/>
    </contour>
    <contour>
      <point x="790" y="78" type="qcurve"/>
      <point x="734" y="132"/>
      <point x="734" y="132"/>
      <point x="761" y="155" type="qcurve"/>
      <point x="791" y="181"/>
      <point x="791" y="181"/>
      <point x="829" y="151" type="qcurve"/>
      <point x="877" y="164"/>
      <point x="1007" y="341"/>
      <point x="1007" y="555" type="qcurve"/>
      <point x="1007" y="608"/>
      <point x="1007" y="608"/>
      <point x="1048" y="608" type="qcurve"/>
      <point x="1089" y="608"/>
      <point x="1089" y="608"/>
      <point x="1089" y="563" type="qcurve"/>
      <point x="1089" y="301"/>
      <point x="919" y="75"/>
    </contour>
    <component base="TopTerminalV3" xOffset="-96"/>
    <component base="TopTerminalV3" xOffset="761"/>
    <component base="WaistElement" xOffset="-96"/>
    <component base="WaistElement" xOffset="761"/>
    <component base="MidStemTop" xOffset="-96"/>
    <component base="MidStemTop" xOffset="761"/>
    <component base="RoundWaistElement180" xOffset="579" yOffset="-1"/>
  </outline>
</glyph>
<glyph name="V" format="1">
  <advance width="1280"/>
  <unicode hex="0056"/>
  <outline>
    <contour>
      <point x="419" y="141" type="qcurve" smooth="yes"/>
      <point x="403" y="177"/>
      <point x="403" y="177"/>
      <point x="436" y="194" type="qcurve" smooth="yes"/>
      <point x="471" y="209"/>
      <point x="460" y="285"/>
      <point x="430" y="350" type="qcurve" smooth="yes"/>
      <point x="299" y="634"/>
      <point x="299" y="634"/>
      <point x="337" y="650" type="qcurve"/>
      <point x="371" y="665"/>
      <point x="371" y="665"/>
      <point x="524" y="331" type="qcurve"/>
      <point x="561" y="253"/>
      <point x="526" y="142"/>
      <point x="470" y="118" type="qcurve"/>
      <point x="436" y="103"/>
      <point x="436" y="103"/>
    </contour>
    <contour>
      <point x="625" y="201" type="qcurve"/>
      <point x="605" y="152"/>
      <point x="605" y="152"/>
      <point x="430" y="534" type="qcurve"/>
      <point x="403" y="594"/>
      <point x="413" y="684"/>
      <point x="486" y="717" type="qcurve"/>
      <point x="521" y="732"/>
      <point x="521" y="732"/>
      <point x="538" y="696" type="qcurve" smooth="yes"/>
      <point x="555" y="658"/>
      <point x="555" y="658"/>
      <point x="520" y="642" type="qcurve" smooth="yes"/>
      <point x="485" y="626"/>
      <point x="493" y="578"/>
      <point x="526" y="505" type="qcurve"/>
      <point x="643" y="245"/>
      <point x="643" y="245"/>
    </contour>
    <contour>
      <point x="723" y="152" type="qcurve"/>
      <point x="681" y="152"/>
      <point x="681" y="152"/>
      <point x="850" y="525" type="qcurve"/>
      <point x="877" y="584"/>
      <point x="951" y="639"/>
      <point x="1025" y="606" type="qcurve"/>
      <point x="1060" y="591"/>
      <point x="1060" y="591"/>
      <point x="1045" y="557" type="qcurve"/>
      <point x="1030" y="523"/>
      <point x="1030" y="523"/>
      <point x="995" y="538" type="qcurve" smooth="yes"/>
      <point x="960" y="553"/>
      <point x="924" y="509"/>
      <point x="891" y="435" type="qcurve"/>
      <point x="764" y="152"/>
      <point x="764" y="152"/>
    </contour>
    <contour>
      <point x="661" y="201" type="qcurve"/>
      <point x="643" y="245"/>
      <point x="643" y="245"/>
      <point x="651" y="265" type="qcurve"/>
      <point x="688" y="349"/>
      <point x="802" y="596"/>
      <point x="826" y="653" type="qcurve" smooth="yes"/>
      <point x="842" y="688"/>
      <point x="842" y="688"/>
      <point x="879" y="671" type="qcurve"/>
      <point x="909" y="658"/>
      <point x="909" y="658"/>
      <point x="890" y="614" type="qcurve" smooth="yes"/>
      <point x="833" y="486"/>
      <point x="736" y="274"/>
      <point x="706" y="207" type="qcurve"/>
      <point x="681" y="152"/>
      <point x="681" y="152"/>
    </contour>
    <component base="BaseCrown" xOffset="470"/>
    <component base="CWTermMidWaist" xScale="0.91672286298" xyScale="-0.399523707044" yxScale="0.399523707044" yScale="0.91672286298" xOffset="436" yOffset="199"/>
    <component base="CCWTermMidWaist" xScale="0.918488557599" xyScale="0.395447556017" yxScale="-0.395447556017" yScale="0.918488557599" xOffset="379" yOffset="4"/>
  </outline>
</glyph>
<glyph name="W" format="1">
  <advance width="1636"/>
  <unicode hex="0057"/>
  <outline>
    <contour>
      <point x="304" y="160" type="qcurve"/>
      <point x="292" y="197"/>
      <point x="292" y="197"/>
      <point x="326" y="211" type="qcurve"/>
      <point x="362" y="223"/>
      <point x="356" y="300"/>
      <point x="333" y="368" type="qcurve"/>
      <point x="242" y="623"/>
      <point x="242" y="623"/>
      <point x="281" y="636" type="qcurve"/>
      <point x="316" y="648"/>
      <point x="316" y="648"/>
      <point x="423" y="338" type="qcurve"/>
      <point x="453" y="253"/>
      <point x="411" y="153"/>
      <point x="353" y="133" type="qcurve"/>
      <point x="318" y="121"/>
      <point x="318" y="121"/>
    </contour>
    <contour>
      <point x="501" y="228" type="qcurve"/>
      <point x="488" y="152"/>
      <point x="488" y="152"/>
      <point x="362" y="512" type="qcurve"/>
      <point x="340" y="575"/>
      <point x="360" y="663"/>
      <point x="435" y="690" type="qcurve"/>
      <point x="471" y="702"/>
      <point x="471" y="702"/>
      <point x="485" y="665" type="qcurve"/>
      <point x="499" y="625"/>
      <point x="499" y="625"/>
      <point x="463" y="612" type="qcurve"/>
      <point x="426" y="601"/>
      <point x="430" y="551"/>
      <point x="456" y="474" type="qcurve"/>
      <point x="512" y="302"/>
      <point x="512" y="302"/>
    </contour>
    <contour>
      <point x="575" y="152" type="qcurve"/>
      <point x="536" y="152"/>
      <point x="536" y="152"/>
      <point x="616" y="375" type="qcurve"/>
      <point x="637" y="437"/>
      <point x="707" y="494"/>
      <point x="782" y="468" type="qcurve"/>
      <point x="818" y="455"/>
      <point x="818" y="455"/>
      <point x="805" y="417" type="qcurve"/>
      <point x="791" y="377"/>
      <point x="791" y="377"/>
      <point x="755" y="389" type="qcurve"/>
      <point x="719" y="404"/>
      <point x="691" y="363"/>
      <point x="664" y="287" type="qcurve"/>
      <point x="616" y="152"/>
      <point x="616" y="152"/>
    </contour>
    <contour>
      <point x="523" y="228" type="qcurve"/>
      <point x="512" y="302"/>
      <point x="512" y="302"/>
      <point x="525" y="335" type="qcurve"/>
      <point x="530" y="349"/>
      <point x="556" y="421"/>
      <point x="580" y="497" type="qcurve"/>
      <point x="592" y="533"/>
      <point x="592" y="533"/>
      <point x="628" y="521" type="qcurve"/>
      <point x="662" y="510"/>
      <point x="662" y="510"/>
      <point x="650" y="473" type="qcurve"/>
      <point x="631" y="412"/>
      <point x="589" y="299"/>
      <point x="571" y="247" type="qcurve"/>
      <point x="536" y="152"/>
      <point x="536" y="152"/>
    </contour>
    <contour>
      <point x="673" y="661" type="qcurve"/>
      <point x="639" y="673"/>
      <point x="639" y="673"/>
      <point x="651" y="709" type="qcurve"/>
      <point x="675" y="775"/>
      <point x="690" y="829"/>
      <point x="705" y="871" type="qcurve"/>
      <point x="717" y="905"/>
      <point x="717" y="905"/>
      <point x="758" y="905" type="qcurve"/>
      <point x="797" y="905"/>
      <point x="797" y="905"/>
      <point x="763" y="810" type="qcurve"/>
      <point x="747" y="761"/>
      <point x="742" y="748"/>
      <point x="722" y="687" type="qcurve"/>
      <point x="709" y="649"/>
      <point x="709" y="649"/>
    </contour>
    <contour>
      <point x="745" y="637" type="qcurve"/>
      <point x="709" y="649"/>
      <point x="709" y="649"/>
      <point x="722" y="687" type="qcurve"/>
      <point x="742" y="748"/>
      <point x="747" y="761"/>
      <point x="763" y="810" type="qcurve"/>
      <point x="797" y="905"/>
      <point x="797" y="905"/>
      <point x="810" y="829" type="qcurve"/>
      <point x="821" y="755"/>
      <point x="821" y="755"/>
      <point x="811" y="721" type="qcurve"/>
      <point x="809" y="713"/>
      <point x="801" y="690"/>
      <point x="792" y="663" type="qcurve"/>
      <point x="779" y="625"/>
      <point x="779" y="625"/>
    </contour>
    <contour>
      <point x="972" y="663" type="qcurve"/>
      <point x="933" y="650"/>
      <point x="933" y="650"/>
      <point x="921" y="687" type="qcurve"/>
      <point x="901" y="747"/>
      <point x="895" y="761"/>
      <point x="879" y="810" type="qcurve"/>
      <point x="845" y="905"/>
      <point x="845" y="905"/>
      <point x="884" y="905" type="qcurve"/>
      <point x="925" y="905"/>
      <point x="925" y="905"/>
      <point x="937" y="871" type="qcurve"/>
      <point x="952" y="829"/>
      <point x="972" y="776"/>
      <point x="996" y="710" type="qcurve"/>
      <point x="1008" y="674"/>
      <point x="1008" y="674"/>
    </contour>
    <contour>
      <point x="898" y="638" type="qcurve"/>
      <point x="860" y="625"/>
      <point x="860" y="625"/>
      <point x="848" y="662" type="qcurve"/>
      <point x="840" y="689"/>
      <point x="833" y="713"/>
      <point x="831" y="721" type="qcurve"/>
      <point x="821" y="755"/>
      <point x="821" y="755"/>
      <point x="832" y="829" type="qcurve"/>
      <point x="845" y="905"/>
      <point x="845" y="905"/>
      <point x="879" y="810" type="qcurve"/>
      <point x="895" y="761"/>
      <point x="901" y="747"/>
      <point x="921" y="687" type="qcurve"/>
      <point x="933" y="650"/>
      <point x="933" y="650"/>
    </contour>
    <contour>
      <point x="919" y="157" type="qcurve"/>
      <point x="907" y="195"/>
      <point x="907" y="195"/>
      <point x="941" y="208" type="qcurve"/>
      <point x="977" y="220"/>
      <point x="972" y="297"/>
      <point x="949" y="364" type="qcurve"/>
      <point x="907" y="485"/>
      <point x="907" y="485"/>
      <point x="944" y="498" type="qcurve"/>
      <point x="981" y="511"/>
      <point x="982" y="511"/>
      <point x="1041" y="337" type="qcurve"/>
      <point x="1071" y="253"/>
      <point x="1026" y="150"/>
      <point x="968" y="131" type="qcurve"/>
      <point x="933" y="118"/>
      <point x="933" y="118"/>
    </contour>
    <contour>
      <point x="1119" y="228" type="qcurve"/>
      <point x="1106" y="152"/>
      <point x="1106" y="152"/>
      <point x="1027" y="376" type="qcurve"/>
      <point x="1006" y="437"/>
      <point x="1025" y="526"/>
      <point x="1100" y="552" type="qcurve"/>
      <point x="1136" y="565"/>
      <point x="1136" y="565"/>
      <point x="1150" y="527" type="qcurve"/>
      <point x="1164" y="487"/>
      <point x="1164" y="487"/>
      <point x="1128" y="474" type="qcurve"/>
      <point x="1091" y="463"/>
      <point x="1095" y="413"/>
      <point x="1119" y="336" type="qcurve"/>
      <point x="1130" y="302"/>
      <point x="1130" y="302"/>
    </contour>
    <contour>
      <point x="1193" y="152" type="qcurve"/>
      <point x="1154" y="152"/>
      <point x="1154" y="152"/>
      <point x="1277" y="507" type="qcurve"/>
      <point x="1298" y="569"/>
      <point x="1367" y="626"/>
      <point x="1442" y="601" type="qcurve"/>
      <point x="1478" y="588"/>
      <point x="1478" y="588"/>
      <point x="1466" y="550" type="qcurve"/>
      <point x="1452" y="510"/>
      <point x="1452" y="509"/>
      <point x="1416" y="522" type="qcurve"/>
      <point x="1380" y="536"/>
      <point x="1352" y="495"/>
      <point x="1326" y="419" type="qcurve"/>
      <point x="1234" y="152"/>
      <point x="1234" y="152"/>
    </contour>
    <contour>
      <point x="1141" y="228" type="qcurve"/>
      <point x="1130" y="302"/>
      <point x="1130" y="302"/>
      <point x="1141" y="336" type="qcurve"/>
      <point x="1143" y="344"/>
      <point x="1191" y="487"/>
      <point x="1241" y="631" type="qcurve"/>
      <point x="1253" y="667"/>
      <point x="1253" y="667"/>
      <point x="1288" y="654" type="qcurve"/>
      <point x="1323" y="642"/>
      <point x="1323" y="642"/>
      <point x="1311" y="607" type="qcurve"/>
      <point x="1267" y="478"/>
      <point x="1207" y="299"/>
      <point x="1189" y="247" type="qcurve"/>
      <point x="1154" y="152"/>
      <point x="1154" y="152"/>
    </contour>
    <component base="BaseCrown2" xOffset="878"/>
    <component base="BaseCrown2" xOffset="260"/>
    <component base="TopCrownW" xOffset="569" yOffset="755"/>
    <component base="CCWTermMidWaist" xScale="0.9472102777460288" xyScale="0.32061299058567627" yxScale="-0.32061299058567627" yScale="0.9472102777460288" xOffset="271" yOffset="-12"/>
    <component base="CWTermMidWaist" xScale="0.9472102777460287" xyScale="-0.3206129905856762" yxScale="0.3206129905856762" yScale="0.9472102777460287" xOffset="891" yOffset="144"/>
    <component base="CWWaist" xScale="0.9472102777460288" xyScale="-0.32061299058567627" yxScale="0.32061299058567627" yScale="0.9472102777460288" xOffset="230" yOffset="11"/>
    <component base="CCWWaist" xScale="0.9472102777460288" xyScale="0.32061299058567627" yxScale="-0.32061299058567627" yScale="0.9472102777460288" xOffset="936" yOffset="-149"/>
  </outline>
</glyph>
<glyph name="X" format="1">
  <advance width="1168"/>
  <unicode hex="0058"/>
  <outline>
    <contour>
      <point x="51" y="285" type="qcurve"/>
      <point x="76" y="318"/>
      <point x="76" y="318"/>
      <point x="106" y="295" type="qcurve"/>
      <point x="136" y="273"/>
      <point x="200" y="319"/>
      <point x="242" y="376" type="qcurve"/>
      <point x="346" y="512"/>
      <point x="411" y="602"/>
      <point x="454" y="660" type="qcurve"/>
      <point x="487" y="705"/>
      <point x="487" y="705"/>
      <point x="511" y="673" type="qcurve"/>
      <point x="533" y="642"/>
      <point x="533" y="642"/>
      <point x="506" y="605" type="qcurve"/>
      <point x="476" y="565"/>
      <point x="409" y="476"/>
      <point x="268" y="287" type="qcurve"/>
      <point x="215" y="215"/>
      <point x="105" y="194"/>
      <point x="57" y="230" type="qcurve"/>
      <point x="27" y="252"/>
      <point x="27" y="252"/>
    </contour>
    <contour>
      <point x="192" y="124" type="qcurve"/>
      <point x="163" y="147"/>
      <point x="163" y="147"/>
      <point x="186" y="177" type="qcurve"/>
      <point x="209" y="208"/>
      <point x="273" y="296"/>
      <point x="407" y="480" type="qcurve"/>
      <point x="447" y="532"/>
      <point x="531" y="568"/>
      <point x="596" y="519" type="qcurve"/>
      <point x="626" y="495"/>
      <point x="626" y="495"/>
      <point x="601" y="463" type="qcurve"/>
      <point x="577" y="431"/>
      <point x="577" y="431"/>
      <point x="546" y="453" type="qcurve"/>
      <point x="516" y="476"/>
      <point x="478" y="445"/>
      <point x="430" y="380" type="qcurve"/>
      <point x="327" y="243"/>
      <point x="268" y="163"/>
      <point x="245" y="133" type="qcurve"/>
      <point x="222" y="102"/>
      <point x="222" y="102"/>
    </contour>
    <contour>
      <point x="391" y="674" type="qcurve"/>
      <point x="366" y="707"/>
      <point x="366" y="707"/>
      <point x="396" y="730" type="qcurve"/>
      <point x="426" y="753"/>
      <point x="396" y="824"/>
      <point x="353" y="881" type="qcurve"/>
      <point x="214" y="1062"/>
      <point x="177" y="1113"/>
      <point x="154" y="1143" type="qcurve" smooth="yes"/>
      <point x="131" y="1174"/>
      <point x="131" y="1173"/>
      <point x="162" y="1197" type="qcurve"/>
      <point x="193" y="1221"/>
      <point x="193" y="1221"/>
      <point x="216" y="1190" type="qcurve" smooth="yes"/>
      <point x="239" y="1160"/>
      <point x="277" y="1110"/>
      <point x="448" y="884" type="qcurve"/>
      <point x="503" y="813"/>
      <point x="494" y="702"/>
      <point x="446" y="665" type="qcurve"/>
      <point x="416" y="642"/>
      <point x="416" y="642"/>
    </contour>
    <contour>
      <point x="559" y="802" type="qcurve"/>
      <point x="535" y="770"/>
      <point x="535" y="770"/>
      <point x="499" y="819" type="qcurve"/>
      <point x="476" y="849"/>
      <point x="408" y="935"/>
      <point x="280" y="1105" type="qcurve"/>
      <point x="241" y="1157"/>
      <point x="229" y="1248"/>
      <point x="293" y="1297" type="qcurve"/>
      <point x="324" y="1320"/>
      <point x="324" y="1320"/>
      <point x="349" y="1288" type="qcurve"/>
      <point x="373" y="1255"/>
      <point x="373" y="1255"/>
      <point x="343" y="1233" type="qcurve"/>
      <point x="313" y="1209"/>
      <point x="335" y="1162"/>
      <point x="401" y="1074" type="qcurve" smooth="yes"/>
      <point x="472" y="980"/>
      <point x="539" y="896"/>
      <point x="560" y="866" type="qcurve"/>
      <point x="584" y="834"/>
      <point x="584" y="834"/>
    </contour>
    <contour>
      <point x="837" y="81" type="qcurve"/>
      <point x="812" y="114"/>
      <point x="812" y="114"/>
      <point x="842" y="137" type="qcurve"/>
      <point x="872" y="160"/>
      <point x="842" y="231"/>
      <point x="792" y="296" type="qcurve" smooth="yes"/>
      <point x="724" y="384"/>
      <point x="624" y="519"/>
      <point x="602" y="549" type="qcurve" smooth="yes"/>
      <point x="579" y="579"/>
      <point x="579" y="579"/>
      <point x="602" y="610" type="qcurve"/>
      <point x="627" y="644"/>
      <point x="627" y="644"/>
      <point x="664" y="596" type="qcurve"/>
      <point x="687" y="566"/>
      <point x="789" y="431"/>
      <point x="894" y="291" type="qcurve"/>
      <point x="949" y="220"/>
      <point x="940" y="109"/>
      <point x="892" y="72" type="qcurve"/>
      <point x="862" y="49"/>
      <point x="862" y="49"/>
    </contour>
    <contour>
      <point x="546" y="954" type="qcurve"/>
      <point x="571" y="987"/>
      <point x="571" y="987"/>
      <point x="601" y="964" type="qcurve"/>
      <point x="631" y="942"/>
      <point x="694" y="983"/>
      <point x="737" y="1042" type="qcurve" smooth="yes"/>
      <point x="781" y="1102"/>
      <point x="871" y="1220"/>
      <point x="882" y="1235" type="qcurve" smooth="yes"/>
      <point x="905" y="1266"/>
      <point x="905" y="1266"/>
      <point x="935" y="1243" type="qcurve"/>
      <point x="964" y="1221"/>
      <point x="964" y="1221"/>
      <point x="941" y="1191" type="qcurve" smooth="yes"/>
      <point x="929" y="1175"/>
      <point x="837" y="1051"/>
      <point x="766" y="956" type="qcurve"/>
      <point x="710" y="884"/>
      <point x="600" y="863"/>
      <point x="552" y="899" type="qcurve"/>
      <point x="522" y="921"/>
      <point x="522" y="921"/>
    </contour>
    <contour>
      <point x="1031" y="175" type="qcurve"/>
      <point x="1000" y="152"/>
      <point x="1000" y="152"/>
      <point x="977" y="182" type="qcurve" smooth="yes"/>
      <point x="954" y="212"/>
      <point x="924" y="252"/>
      <point x="701" y="546" type="qcurve"/>
      <point x="662" y="598"/>
      <point x="650" y="689"/>
      <point x="714" y="738" type="qcurve"/>
      <point x="745" y="761"/>
      <point x="745" y="761"/>
      <point x="770" y="729" type="qcurve"/>
      <point x="794" y="696"/>
      <point x="794" y="696"/>
      <point x="764" y="673" type="qcurve"/>
      <point x="734" y="650"/>
      <point x="754" y="605"/>
      <point x="803" y="541" type="qcurve"/>
      <point x="987" y="297"/>
      <point x="1015" y="259"/>
      <point x="1039" y="229" type="qcurve"/>
      <point x="1063" y="198"/>
      <point x="1063" y="198"/>
    </contour>
    <contour>
      <point x="654" y="742" type="qcurve"/>
      <point x="631" y="773"/>
      <point x="631" y="773"/>
      <point x="666" y="821" type="qcurve"/>
      <point x="677" y="835"/>
      <point x="749" y="933"/>
      <point x="877" y="1106" type="qcurve"/>
      <point x="913" y="1160"/>
      <point x="997" y="1196"/>
      <point x="1062" y="1147" type="qcurve"/>
      <point x="1092" y="1123"/>
      <point x="1092" y="1123"/>
      <point x="1068" y="1091" type="qcurve"/>
      <point x="1043" y="1059"/>
      <point x="1043" y="1059"/>
      <point x="1012" y="1081" type="qcurve"/>
      <point x="982" y="1104"/>
      <point x="944" y="1073"/>
      <point x="896" y="1008" type="qcurve"/>
      <point x="808" y="890"/>
      <point x="736" y="791"/>
      <point x="725" y="776" type="qcurve"/>
      <point x="678" y="711"/>
      <point x="678" y="711"/>
    </contour>
    <contour>
      <point x="511" y="673" type="qcurve"/>
      <point x="487" y="705"/>
      <point x="487" y="705"/>
      <point x="511" y="737" type="qcurve"/>
      <point x="535" y="770"/>
      <point x="535" y="770"/>
      <point x="560" y="737" type="qcurve"/>
      <point x="582" y="707"/>
      <point x="582" y="707"/>
      <point x="557" y="674" type="qcurve"/>
      <point x="533" y="642"/>
      <point x="533" y="642"/>
    </contour>
    <contour>
      <point x="602" y="610" type="qcurve"/>
      <point x="579" y="579"/>
      <point x="579" y="579"/>
      <point x="556" y="611" type="qcurve"/>
      <point x="533" y="642"/>
      <point x="533" y="642"/>
      <point x="557" y="674" type="qcurve"/>
      <point x="582" y="707"/>
      <point x="582" y="707"/>
      <point x="605" y="674" type="qcurve"/>
      <point x="627" y="644"/>
      <point x="627" y="644"/>
    </contour>
    <contour>
      <point x="560" y="737" type="qcurve"/>
      <point x="535" y="770"/>
      <point x="535" y="770"/>
      <point x="559" y="802" type="qcurve"/>
      <point x="584" y="834"/>
      <point x="584" y="834"/>
      <point x="608" y="804" type="qcurve"/>
      <point x="631" y="773"/>
      <point x="631" y="773"/>
      <point x="606" y="738" type="qcurve"/>
      <point x="582" y="707"/>
      <point x="582" y="707"/>
    </contour>
    <contour>
      <point x="605" y="674" type="qcurve"/>
      <point x="582" y="707"/>
      <point x="582" y="707"/>
      <point x="606" y="738" type="qcurve"/>
      <point x="631" y="773"/>
      <point x="631" y="773"/>
      <point x="654" y="742" type="qcurve"/>
      <point x="678" y="711"/>
      <point x="678" y="711"/>
      <point x="651" y="676" type="qcurve"/>
      <point x="627" y="644"/>
      <point x="627" y="644"/>
    </contour>
    <component base="CWTerm" xScale="0.7986355100472928" xyScale="-0.6018150231520483" yxScale="0.6018150231520483" yScale="0.7986355100472928" xOffset="30" yOffset="397"/>
    <component base="CCWTerm" xScale="-0.7986355100472928" xyScale="-0.6018150231520483" yxScale="0.6018150231520483" yScale="-0.7986355100472928" xOffset="468" yOffset="1279"/>
    <component base="CCWTerm" xScale="0.7986355100472928" xyScale="0.6018150231520483" yxScale="-0.6018150231520483" yScale="0.7986355100472928" xOffset="726" yOffset="92"/>
    <component base="CWTerm" xScale="-0.7986355100472928" xyScale="0.6018150231520483" yxScale="-0.6018150231520483" yScale="-0.7986355100472928" xOffset="1097" yOffset="971"/>
  </outline>
</glyph>
<glyph name="Y" format="1">
  <advance width="1139"/>
  <unicode hex="0059"/>
  <outline>
    <contour>
      <point x="337" y="624" type="qcurve"/>
      <point x="315" y="658"/>
      <point x="315" y="658"/>
      <point x="347" y="679" type="qcurve"/>
      <point x="378" y="700"/>
      <point x="354" y="773"/>
      <point x="315" y="833" type="qcurve"/>
      <point x="98" y="1171"/>
      <point x="98" y="1171"/>
      <point x="130" y="1191" type="qcurve"/>
      <point x="164" y="1212"/>
      <point x="164" y="1212"/>
      <point x="410" y="828" type="qcurve"/>
      <point x="460" y="753"/>
      <point x="442" y="643"/>
      <point x="392" y="610" type="qcurve"/>
      <point x="360" y="590"/>
      <point x="360" y="590"/>
    </contour>
    <contour>
      <point x="549" y="673" type="qcurve"/>
      <point x="525" y="642"/>
      <point x="525" y="642"/>
      <point x="242" y="1089" type="qcurve"/>
      <point x="207" y="1144"/>
      <point x="202" y="1236"/>
      <point x="270" y="1279" type="qcurve"/>
      <point x="302" y="1300"/>
      <point x="302" y="1300"/>
      <point x="325" y="1266" type="qcurve"/>
      <point x="346" y="1231"/>
      <point x="346" y="1231"/>
      <point x="315" y="1211" type="qcurve"/>
      <point x="283" y="1190"/>
      <point x="301" y="1141"/>
      <point x="360" y="1048" type="qcurve"/>
      <point x="572" y="706"/>
      <point x="572" y="706"/>
    </contour>
    <contour>
      <point x="403" y="193" type="qcurve"/>
      <point x="403" y="234"/>
      <point x="403" y="234"/>
      <point x="441" y="234" type="qcurve"/>
      <point x="479" y="234"/>
      <point x="489" y="309"/>
      <point x="489" y="380" type="qcurve"/>
      <point x="489" y="491"/>
      <point x="489" y="491"/>
      <point x="530" y="491" type="qcurve"/>
      <point x="571" y="491"/>
      <point x="571" y="491"/>
      <point x="571" y="325" type="qcurve"/>
      <point x="571" y="235"/>
      <point x="502" y="152"/>
      <point x="441" y="152" type="qcurve"/>
      <point x="403" y="152"/>
      <point x="403" y="152"/>
    </contour>
    <contour>
      <point x="612" y="152" type="qcurve"/>
      <point x="571" y="152"/>
      <point x="571" y="152"/>
      <point x="571" y="346" type="qcurve"/>
      <point x="571" y="411"/>
      <point x="621" y="491"/>
      <point x="702" y="491" type="qcurve"/>
      <point x="740" y="491"/>
      <point x="740" y="491"/>
      <point x="740" y="450" type="qcurve"/>
      <point x="740" y="409"/>
      <point x="740" y="409"/>
      <point x="702" y="409" type="qcurve"/>
      <point x="664" y="409"/>
      <point x="653" y="361"/>
      <point x="653" y="280" type="qcurve"/>
      <point x="653" y="152"/>
      <point x="653" y="152"/>
    </contour>
    <contour>
      <point x="549" y="843" type="qcurve"/>
      <point x="572" y="878"/>
      <point x="572" y="878"/>
      <point x="604" y="858" type="qcurve"/>
      <point x="636" y="839"/>
      <point x="692" y="891"/>
      <point x="730" y="952" type="qcurve"/>
      <point x="915" y="1249"/>
      <point x="915" y="1249"/>
      <point x="945" y="1230" type="qcurve"/>
      <point x="978" y="1209"/>
      <point x="978" y="1209"/>
      <point x="759" y="866" type="qcurve"/>
      <point x="712" y="792"/>
      <point x="612" y="757"/>
      <point x="561" y="788" type="qcurve"/>
      <point x="529" y="808"/>
      <point x="529" y="808"/>
    </contour>
    <contour>
      <point x="660" y="642" type="qcurve"/>
      <point x="617" y="642"/>
      <point x="617" y="642"/>
      <point x="899" y="1088" type="qcurve"/>
      <point x="935" y="1143"/>
      <point x="1014" y="1186"/>
      <point x="1083" y="1143" type="qcurve"/>
      <point x="1116" y="1123"/>
      <point x="1116" y="1123"/>
      <point x="1094" y="1088" type="qcurve"/>
      <point x="1072" y="1054"/>
      <point x="1072" y="1054"/>
      <point x="1040" y="1073" type="qcurve"/>
      <point x="1008" y="1094"/>
      <point x="971" y="1056"/>
      <point x="913" y="964" type="qcurve"/>
      <point x="702" y="642"/>
      <point x="702" y="642"/>
    </contour>
    <contour>
      <point x="530" y="491" type="qcurve" smooth="yes"/>
      <point x="489" y="491"/>
      <point x="489" y="491"/>
      <point x="489" y="529" type="qcurve"/>
      <point x="489" y="567"/>
      <point x="489" y="567"/>
      <point x="530" y="567" type="qcurve" smooth="yes"/>
      <point x="571" y="567"/>
      <point x="571" y="567"/>
      <point x="571" y="529" type="qcurve"/>
      <point x="571" y="491"/>
      <point x="571" y="491"/>
    </contour>
    <contour>
      <point x="530" y="567" type="qcurve"/>
      <point x="489" y="567"/>
      <point x="489" y="567"/>
      <point x="465" y="605" type="qcurve"/>
      <point x="440" y="642"/>
      <point x="440" y="642"/>
      <point x="485" y="642" type="qcurve"/>
      <point x="525" y="642"/>
      <point x="525" y="642"/>
      <point x="547" y="606" type="qcurve"/>
      <point x="571" y="567"/>
      <point x="571" y="567"/>
    </contour>
    <contour>
      <point x="612" y="491" type="qcurve" smooth="yes"/>
      <point x="571" y="491"/>
      <point x="571" y="491"/>
      <point x="571" y="529" type="qcurve"/>
      <point x="571" y="567"/>
      <point x="571" y="567"/>
      <point x="612" y="567" type="qcurve" smooth="yes"/>
      <point x="653" y="567"/>
      <point x="653" y="567"/>
      <point x="653" y="529" type="qcurve"/>
      <point x="653" y="491"/>
      <point x="653" y="491"/>
    </contour>
    <contour>
      <point x="612" y="567" type="qcurve"/>
      <point x="571" y="567"/>
      <point x="571" y="567"/>
      <point x="595" y="606" type="qcurve"/>
      <point x="617" y="642"/>
      <point x="617" y="642"/>
      <point x="660" y="642" type="qcurve"/>
      <point x="702" y="642"/>
      <point x="702" y="642"/>
      <point x="677" y="605" type="qcurve"/>
      <point x="653" y="567"/>
      <point x="653" y="567"/>
    </contour>
    <contour>
      <point x="571" y="567" type="qcurve"/>
      <point x="525" y="642"/>
      <point x="525" y="642"/>
      <point x="549" y="673" type="qcurve"/>
      <point x="572" y="706"/>
      <point x="572" y="706"/>
      <point x="594" y="675" type="qcurve"/>
      <point x="617" y="642"/>
      <point x="617" y="642"/>
    </contour>
    <component base="BaseTerminal" xOffset="243"/>
    <component base="CWTerm" xScale="0.848048096156426" xyScale="-0.5299192642332049" yxScale="0.5299192642332049" yScale="0.848048096156426" xOffset="119" yOffset="307"/>
    <component base="CCWTerm" xScale="0.8475799498429241" xyScale="0.5306677195988715" yxScale="-0.5306677195988715" yScale="0.8475799498429241" xOffset="596" yOffset="43"/>
  </outline>
</glyph>
<glyph name="Z" format="1">
  <advance width="818"/>
  <unicode hex="005A"/>
  <outline>
    <contour>
      <point x="71" y="0" type="qcurve" smooth="yes"/>
      <point x="24" y="0"/>
      <point x="24" y="0"/>
      <point x="24" y="32" type="qcurve" smooth="yes"/>
      <point x="24" y="63"/>
      <point x="24" y="63"/>
      <point x="40" y="101" type="qcurve" smooth="yes"/>
      <point x="57" y="141"/>
      <point x="148" y="350"/>
      <point x="171" y="402" type="qcurve" smooth="yes"/>
      <point x="194" y="454"/>
      <point x="240" y="554"/>
      <point x="254" y="587" type="qcurve"/>
      <point x="282" y="650"/>
      <point x="282" y="650"/>
      <point x="318" y="634" type="qcurve"/>
      <point x="353" y="618"/>
      <point x="353" y="618"/>
      <point x="325" y="554" type="qcurve"/>
      <point x="298" y="494"/>
      <point x="266" y="421"/>
      <point x="246" y="377" type="qcurve" smooth="yes"/>
      <point x="212" y="302"/>
      <point x="151" y="167"/>
      <point x="124" y="106" type="qcurve"/>
      <point x="110" y="76"/>
      <point x="110" y="76"/>
      <point x="183" y="76" type="qcurve"/>
      <point x="218" y="76"/>
      <point x="281" y="76"/>
      <point x="474" y="76" type="qcurve"/>
      <point x="564" y="76"/>
      <point x="630" y="11"/>
      <point x="630" y="-47" type="qcurve"/>
      <point x="630" y="-83"/>
      <point x="630" y="-83"/>
      <point x="589" y="-83" type="qcurve"/>
      <point x="548" y="-83"/>
      <point x="548" y="-83"/>
      <point x="548" y="-47" type="qcurve"/>
      <point x="548" y="-18"/>
      <point x="518" y="0"/>
      <point x="470" y="0" type="qcurve"/>
      <point x="207" y="0"/>
      <point x="91" y="0"/>
    </contour>
    <contour>
      <point x="448" y="735" type="qcurve"/>
      <point x="413" y="751"/>
      <point x="413" y="751"/>
      <point x="441" y="815" type="qcurve"/>
      <point x="450" y="836"/>
      <point x="500" y="947"/>
      <point x="520" y="991" type="qcurve" smooth="yes"/>
      <point x="554" y="1066"/>
      <point x="615" y="1201"/>
      <point x="642" y="1262" type="qcurve"/>
      <point x="656" y="1292"/>
      <point x="656" y="1292"/>
      <point x="583" y="1292" type="qcurve"/>
      <point x="548" y="1292"/>
      <point x="485" y="1292"/>
      <point x="316" y="1292" type="qcurve" smooth="yes"/>
      <point x="245" y="1292"/>
      <point x="188" y="1351"/>
      <point x="188" y="1416" type="qcurve"/>
      <point x="188" y="1451"/>
      <point x="188" y="1451"/>
      <point x="229" y="1450" type="qcurve"/>
      <point x="270" y="1451"/>
      <point x="270" y="1451"/>
      <point x="270" y="1416" type="qcurve"/>
      <point x="270" y="1387"/>
      <point x="303" y="1368"/>
      <point x="340" y="1368" type="qcurve"/>
      <point x="559" y="1368"/>
      <point x="675" y="1368"/>
      <point x="695" y="1368" type="qcurve" smooth="yes"/>
      <point x="742" y="1368"/>
      <point x="742" y="1368"/>
      <point x="742" y="1336" type="qcurve" smooth="yes"/>
      <point x="742" y="1305"/>
      <point x="742" y="1305"/>
      <point x="726" y="1267" type="qcurve" smooth="yes"/>
      <point x="709" y="1227"/>
      <point x="618" y="1018"/>
      <point x="595" y="966" type="qcurve" smooth="yes"/>
      <point x="572" y="914"/>
      <point x="526" y="815"/>
      <point x="512" y="782" type="qcurve"/>
      <point x="484" y="719"/>
      <point x="484" y="719"/>
    </contour>
    <contour>
      <point x="183" y="76" type="qcurve"/>
      <point x="110" y="76"/>
      <point x="110" y="76"/>
      <point x="124" y="106" type="qcurve"/>
      <point x="151" y="167"/>
      <point x="212" y="302"/>
      <point x="294" y="485" type="qcurve"/>
      <point x="321" y="544"/>
      <point x="400" y="597"/>
      <point x="473" y="564" type="qcurve"/>
      <point x="508" y="549"/>
      <point x="508" y="549"/>
      <point x="492" y="511" type="qcurve"/>
      <point x="474" y="474"/>
      <point x="474" y="474"/>
      <point x="441" y="490" type="qcurve"/>
      <point x="406" y="505"/>
      <point x="374" y="463"/>
      <point x="328" y="363" type="qcurve" smooth="yes"/>
      <point x="296" y="295"/>
      <point x="251" y="188"/>
      <point x="247" y="180" type="qcurve" smooth="yes"/>
      <point x="233" y="152"/>
      <point x="233" y="152"/>
      <point x="265" y="152" type="qcurve"/>
      <point x="292" y="152"/>
      <point x="325" y="152"/>
      <point x="359" y="152" type="qcurve" smooth="yes"/>
      <point x="386" y="152"/>
      <point x="523" y="152"/>
      <point x="560" y="152" type="qcurve"/>
      <point x="630" y="152"/>
      <point x="630" y="152"/>
      <point x="630" y="114" type="qcurve"/>
      <point x="630" y="76"/>
      <point x="630" y="76"/>
      <point x="560" y="76" type="qcurve"/>
      <point x="525" y="76"/>
      <point x="392" y="76"/>
      <point x="336" y="76" type="qcurve" smooth="yes"/>
      <point x="265" y="76"/>
      <point x="210" y="76"/>
    </contour>
    <contour>
      <point x="270" y="858" type="qcurve"/>
      <point x="287" y="896"/>
      <point x="287" y="896"/>
      <point x="322" y="881" type="qcurve"/>
      <point x="357" y="866"/>
      <point x="421" y="969"/>
      <point x="441" y="1011" type="qcurve" smooth="yes"/>
      <point x="471" y="1075"/>
      <point x="515" y="1180"/>
      <point x="519" y="1188" type="qcurve" smooth="yes"/>
      <point x="533" y="1216"/>
      <point x="533" y="1216"/>
      <point x="501" y="1216" type="qcurve"/>
      <point x="474" y="1216"/>
      <point x="441" y="1216"/>
      <point x="407" y="1216" type="qcurve" smooth="yes"/>
      <point x="380" y="1216"/>
      <point x="296" y="1216"/>
      <point x="259" y="1216" type="qcurve"/>
      <point x="189" y="1216"/>
      <point x="189" y="1216"/>
      <point x="189" y="1254" type="qcurve"/>
      <point x="189" y="1292"/>
      <point x="189" y="1292"/>
      <point x="259" y="1292" type="qcurve"/>
      <point x="291" y="1292"/>
      <point x="374" y="1292"/>
      <point x="430" y="1292" type="qcurve" smooth="yes"/>
      <point x="501" y="1292"/>
      <point x="556" y="1292"/>
      <point x="583" y="1292" type="qcurve"/>
      <point x="656" y="1292"/>
      <point x="656" y="1292"/>
      <point x="642" y="1262" type="qcurve"/>
      <point x="615" y="1201"/>
      <point x="554" y="1065"/>
      <point x="483" y="909" type="qcurve"/>
      <point x="446" y="827"/>
      <point x="344" y="782"/>
      <point x="289" y="805" type="qcurve"/>
      <point x="255" y="821"/>
      <point x="255" y="821"/>
    </contour>
    <contour>
      <point x="318" y="634" type="qcurve" smooth="yes"/>
      <point x="282" y="650"/>
      <point x="282" y="650"/>
      <point x="297" y="683" type="qcurve"/>
      <point x="312" y="716"/>
      <point x="312" y="716"/>
      <point x="347" y="700" type="qcurve" smooth="yes"/>
      <point x="383" y="684"/>
      <point x="383" y="684"/>
      <point x="368" y="651" type="qcurve"/>
      <point x="353" y="618"/>
      <point x="353" y="618"/>
    </contour>
    <contour>
      <point x="389" y="602" type="qcurve" smooth="yes"/>
      <point x="353" y="618"/>
      <point x="353" y="618"/>
      <point x="368" y="651" type="qcurve"/>
      <point x="383" y="684"/>
      <point x="383" y="684"/>
      <point x="419" y="668" type="qcurve" smooth="yes"/>
      <point x="454" y="652"/>
      <point x="454" y="652"/>
      <point x="439" y="620" type="qcurve"/>
      <point x="424" y="586"/>
      <point x="424" y="586"/>
    </contour>
    <contour>
      <point x="347" y="700" type="qcurve" smooth="yes"/>
      <point x="312" y="716"/>
      <point x="312" y="716"/>
      <point x="326" y="749" type="qcurve"/>
      <point x="341" y="783"/>
      <point x="341" y="783"/>
      <point x="377" y="767" type="qcurve" smooth="yes"/>
      <point x="413" y="751"/>
      <point x="413" y="751"/>
      <point x="398" y="717" type="qcurve"/>
      <point x="383" y="684"/>
      <point x="383" y="684"/>
    </contour>
    <contour>
      <point x="419" y="668" type="qcurve" smooth="yes"/>
      <point x="383" y="684"/>
      <point x="383" y="684"/>
      <point x="398" y="717" type="qcurve"/>
      <point x="413" y="751"/>
      <point x="413" y="751"/>
      <point x="448" y="735" type="qcurve" smooth="yes"/>
      <point x="484" y="719"/>
      <point x="484" y="719"/>
      <point x="469" y="685" type="qcurve"/>
      <point x="454" y="652"/>
      <point x="454" y="652"/>
    </contour>
    <component base="LeftTopTerm" xOffset="-221" yOffset="1216"/>
    <component base="RightBotTerm" xOffset="384"/>
  </outline>
</glyph>
<glyph name="CWTopMid" format="1">
  <advance width="1204"/>
  <outline>
    <contour>
      <point x="433" y="798" type="qcurve"/>
      <point x="433" y="834"/>
      <point x="433" y="834"/>
      <point x="471" y="834" type="qcurve" smooth="yes"/>
      <point x="509" y="834"/>
      <point x="528" y="917"/>
      <point x="528" y="988" type="qcurve" smooth="yes"/>
      <point x="528" y="1103"/>
      <point x="528" y="1144"/>
      <point x="528" y="1182" type="qcurve" smooth="yes"/>
      <point x="528" y="1220"/>
      <point x="528" y="1220"/>
      <point x="569" y="1220" type="qcurve"/>
      <point x="602" y="1220"/>
      <point x="602" y="1220"/>
      <point x="602" y="1172" type="qcurve" smooth="yes"/>
      <point x="602" y="1131"/>
      <point x="602" y="971"/>
      <point x="602" y="933" type="qcurve"/>
      <point x="602" y="843"/>
      <point x="532" y="760"/>
      <point x="471" y="760" type="qcurve"/>
      <point x="433" y="760"/>
      <point x="433" y="760"/>
    </contour>
    <contour>
      <point x="639" y="758" type="qcurve" smooth="yes"/>
      <point x="602" y="758"/>
      <point x="602" y="758"/>
      <point x="602" y="796" type="qcurve" smooth="yes"/>
      <point x="602" y="834"/>
      <point x="602" y="1044"/>
      <point x="602" y="1075" type="qcurve"/>
      <point x="602" y="1140"/>
      <point x="648" y="1220"/>
      <point x="729" y="1220" type="qcurve"/>
      <point x="767" y="1220"/>
      <point x="767" y="1220"/>
      <point x="767" y="1183" type="qcurve"/>
      <point x="767" y="1146"/>
      <point x="767" y="1146"/>
      <point x="729" y="1146" type="qcurve" smooth="yes"/>
      <point x="691" y="1146"/>
      <point x="676" y="1090"/>
      <point x="676" y="1009" type="qcurve" smooth="yes"/>
      <point x="676" y="894"/>
      <point x="676" y="834"/>
      <point x="676" y="796" type="qcurve" smooth="yes"/>
      <point x="676" y="758"/>
      <point x="676" y="758"/>
    </contour>
  </outline>
</glyph>
<glyph name="MidStemBot" format="1">
  <advance width="656"/>
  <outline>
    <contour>
      <point x="160" y="193" type="qcurve" smooth="yes"/>
      <point x="160" y="234"/>
      <point x="160" y="234"/>
      <point x="198" y="234" type="qcurve" smooth="yes"/>
      <point x="236" y="234"/>
      <point x="246" y="309"/>
      <point x="246" y="380" type="qcurve" smooth="yes"/>
      <point x="246" y="495"/>
      <point x="246" y="532"/>
      <point x="246" y="570" type="qcurve" smooth="yes"/>
      <point x="246" y="608"/>
      <point x="246" y="608"/>
      <point x="287" y="608" type="qcurve" smooth="yes"/>
      <point x="329" y="608"/>
      <point x="328" y="608"/>
      <point x="328" y="560" type="qcurve" smooth="yes"/>
      <point x="328" y="519"/>
      <point x="328" y="363"/>
      <point x="328" y="325" type="qcurve"/>
      <point x="328" y="235"/>
      <point x="259" y="152"/>
      <point x="198" y="152" type="qcurve"/>
      <point x="160" y="152"/>
      <point x="160" y="152"/>
    </contour>
    <contour>
      <point x="369" y="152" type="qcurve" smooth="yes"/>
      <point x="328" y="152"/>
      <point x="328" y="152"/>
      <point x="328" y="190" type="qcurve" smooth="yes"/>
      <point x="328" y="228"/>
      <point x="328" y="432"/>
      <point x="328" y="463" type="qcurve"/>
      <point x="328" y="528"/>
      <point x="378" y="608"/>
      <point x="459" y="608" type="qcurve"/>
      <point x="497" y="608"/>
      <point x="497" y="608"/>
      <point x="497" y="567" type="qcurve" smooth="yes"/>
      <point x="497" y="526"/>
      <point x="497" y="526"/>
      <point x="459" y="526" type="qcurve" smooth="yes"/>
      <point x="421" y="526"/>
      <point x="410" y="478"/>
      <point x="410" y="397" type="qcurve" smooth="yes"/>
      <point x="410" y="282"/>
      <point x="410" y="228"/>
      <point x="410" y="190" type="qcurve" smooth="yes"/>
      <point x="410" y="152"/>
      <point x="410" y="152"/>
    </contour>
  </outline>
</glyph>
<glyph name="RoundDualyNE" format="1">
  <advance width="653"/>
  <outline>
    <contour>
      <point x="659" y="792" type="qcurve" smooth="yes"/>
      <point x="650" y="761"/>
      <point x="564" y="793"/>
      <point x="559" y="824" type="qcurve"/>
      <point x="540" y="916"/>
      <point x="449" y="1078"/>
      <point x="347" y="1172" type="qcurve"/>
      <point x="219" y="1271"/>
      <point x="0" y="1335"/>
      <point x="0" y="1419" type="qcurve" smooth="yes"/>
      <point x="0" y="1456"/>
      <point x="0" y="1455"/>
      <point x="41" y="1455" type="qcurve" smooth="yes"/>
      <point x="82" y="1455"/>
      <point x="82" y="1455"/>
      <point x="82" y="1426" type="qcurve"/>
      <point x="83" y="1391"/>
      <point x="343" y="1294"/>
      <point x="425" y="1215" type="qcurve"/>
      <point x="511" y="1132"/>
      <point x="607" y="970"/>
      <point x="631" y="880" type="qcurve"/>
      <point x="668" y="825"/>
      <point x="669" y="825"/>
    </contour>
    <contour>
      <point x="453" y="777" type="qcurve"/>
      <point x="420" y="799"/>
      <point x="449" y="833"/>
      <point x="460" y="867" type="qcurve"/>
      <point x="442" y="925"/>
      <point x="374" y="1038"/>
      <point x="310" y="1104" type="qcurve"/>
      <point x="234" y="1174"/>
      <point x="93" y="1224"/>
      <point x="83" y="1209" type="qcurve"/>
      <point x="68" y="1182"/>
      <point x="68" y="1181"/>
      <point x="30" y="1199" type="qcurve"/>
      <point x="-7" y="1216"/>
      <point x="-6" y="1216"/>
      <point x="2" y="1243" type="qcurve"/>
      <point x="19" y="1324"/>
      <point x="219" y="1271"/>
      <point x="347" y="1172" type="qcurve"/>
      <point x="449" y="1078"/>
      <point x="540" y="912"/>
      <point x="557" y="823" type="qcurve"/>
      <point x="542" y="767"/>
      <point x="479" y="762"/>
    </contour>
  </outline>
</glyph>
